{"glyphs":{"0":{"ha":842,"x_min":75,"x_max":768,"o":"m 530 338 l 530 694 q 505 810 530 775 q 421 844 479 844 q 338 810 363 844 q 313 694 313 775 l 313 338 q 338 221 313 256 q 421 186 363 186 q 505 221 479 186 q 530 338 530 256 m 768 347 q 755 172 768 226 q 711 79 742 118 q 601 3 671 28 q 421 -21 530 -21 q 241 3 312 -21 q 131 79 171 28 q 88 170 100 117 q 75 347 75 222 l 75 686 q 88 860 75 807 q 131 953 100 913 q 241 1028 171 1004 q 421 1053 312 1053 q 601 1028 530 1053 q 711 953 671 1004 q 755 859 742 913 q 768 686 768 805 l 768 347 z "},"1":{"ha":842,"x_min":252,"x_max":593,"o":"m 252 1032 l 542 1032 l 542 281 q 553 198 542 216 q 593 174 564 180 l 593 0 l 252 0 l 252 174 q 293 199 282 180 q 304 281 304 218 l 304 758 q 293 840 304 821 q 252 865 282 859 l 252 1032 z "},"2":{"ha":842,"x_min":69,"x_max":775,"o":"m 87 681 l 87 958 q 241 1027 151 1002 q 425 1053 331 1053 q 687 987 604 1053 q 770 779 770 922 q 739 633 770 692 q 606 494 707 574 l 379 315 q 327 261 339 283 q 314 208 314 239 l 314 200 l 415 200 q 500 218 478 200 q 522 297 522 237 l 522 329 l 775 329 l 775 0 l 69 0 l 69 241 q 93 366 69 318 q 183 465 116 413 l 447 672 q 504 728 488 703 q 521 781 521 753 q 496 847 521 823 q 427 871 471 871 q 344 841 374 871 q 314 757 314 810 l 314 681 l 87 681 z "},"3":{"ha":842,"x_min":64,"x_max":764,"o":"m 75 726 l 75 961 q 237 1029 149 1006 q 419 1053 325 1053 q 669 980 583 1053 q 755 770 755 907 q 712 617 755 675 q 578 534 668 559 q 717 458 671 521 q 764 286 764 396 q 674 56 764 134 q 408 -21 585 -21 q 233 3 321 -21 q 64 74 145 28 l 64 319 l 298 319 l 298 311 q 327 219 298 250 q 411 187 355 187 q 491 219 463 187 q 518 310 518 250 q 487 407 518 378 q 375 436 455 436 l 245 436 l 245 611 l 383 611 q 485 642 450 611 q 521 729 521 673 q 490 815 521 785 q 403 846 458 846 q 329 815 355 846 q 300 726 303 785 l 75 726 z "},"4":{"ha":842,"x_min":35,"x_max":757,"o":"m 689 1032 l 689 471 l 757 471 l 757 275 l 689 275 l 689 261 q 700 197 689 215 q 741 174 711 179 l 741 0 l 410 0 l 410 174 q 450 197 439 179 q 461 261 461 215 l 461 275 l 35 275 l 35 496 l 392 1032 l 689 1032 m 461 471 l 461 796 l 249 471 l 461 471 z "},"5":{"ha":842,"x_min":78,"x_max":783,"o":"m 78 1032 l 755 1032 l 755 754 l 534 754 q 509 817 529 800 q 425 833 488 833 l 314 833 l 314 647 q 405 674 363 665 q 490 682 447 682 q 713 599 643 682 q 783 330 783 515 q 700 62 783 146 q 437 -22 617 -22 q 241 2 333 -22 q 78 74 149 27 l 78 339 l 313 339 l 313 334 q 341 220 313 256 q 433 184 370 184 q 519 221 493 184 q 545 346 545 258 q 519 465 545 429 q 436 501 493 501 q 378 490 403 501 q 334 454 354 479 l 78 454 l 78 1032 z "},"6":{"ha":842,"x_min":69,"x_max":774,"o":"m 414 179 q 497 214 470 179 q 525 321 525 249 q 497 420 525 387 q 414 454 469 454 q 332 421 359 454 q 304 321 304 387 q 331 213 304 248 q 414 179 357 179 m 755 737 l 529 738 q 502 828 528 800 q 419 856 475 856 q 330 824 355 856 q 304 694 304 791 l 304 595 q 400 635 349 621 q 509 648 451 648 q 621 631 572 648 q 704 579 669 614 q 758 489 742 541 q 774 330 774 437 q 692 57 774 134 q 414 -21 611 -21 q 151 49 233 -21 q 69 273 69 119 l 69 751 q 152 980 69 907 q 408 1053 234 1053 q 583 1033 496 1053 q 755 972 670 1013 l 755 737 z "},"7":{"ha":842,"x_min":68,"x_max":778,"o":"m 68 685 l 68 1032 l 778 1032 l 778 856 l 411 0 l 155 0 l 514 833 l 449 833 q 318 806 347 833 q 290 697 290 779 l 290 685 l 68 685 z "},"8":{"ha":842,"x_min":53,"x_max":789,"o":"m 421 174 q 508 211 477 174 q 539 317 539 248 q 508 421 539 385 q 421 458 477 458 q 333 422 363 458 q 302 317 302 385 q 333 211 302 248 q 421 174 364 174 m 421 848 q 341 818 370 848 q 313 733 313 787 q 341 646 313 677 q 421 615 370 615 q 500 646 472 615 q 529 732 529 677 q 500 818 529 787 q 421 848 471 848 m 200 534 q 97 616 128 564 q 65 760 65 669 q 155 977 65 903 q 421 1051 245 1051 q 686 977 595 1051 q 777 760 777 903 q 745 616 777 669 q 642 534 713 564 q 753 442 717 503 q 789 288 789 382 q 698 55 789 132 q 421 -21 608 -21 q 144 55 235 -21 q 53 288 53 132 q 89 442 53 382 q 200 534 125 503 z "},"9":{"ha":842,"x_min":69,"x_max":772,"o":"m 428 850 q 344 816 371 850 q 317 711 317 783 q 343 596 317 633 q 428 559 370 559 q 511 595 484 559 q 538 701 538 630 q 512 815 538 781 q 428 850 486 850 m 92 275 l 313 275 q 342 201 315 227 q 422 176 370 176 q 512 209 487 176 q 538 338 538 241 l 538 422 q 453 385 499 398 q 357 372 407 372 q 137 449 205 372 q 69 701 69 526 q 91 889 69 829 q 165 987 113 949 q 274 1036 208 1020 q 428 1053 340 1053 q 691 983 609 1053 q 772 758 772 913 l 772 281 q 690 52 772 125 q 435 -21 608 -21 q 260 -1 348 -21 q 92 56 173 18 l 92 275 z "},"":{"ha":833,"x_min":69,"x_max":764,"o":"m 69 -245 l 69 979 l 764 979 l 764 -245 l 69 -245 m 147 -168 l 686 -168 l 686 901 l 147 901 l 147 -168 z "}," ":{"ha":421,"x_min":0,"x_max":0,"o":""},"!":{"ha":421,"x_min":81,"x_max":340,"o":"m 93 104 q 127 186 93 151 q 210 221 162 221 q 292 187 258 221 q 326 104 326 153 q 292 22 326 56 q 210 -12 258 -12 q 128 22 163 -12 q 93 104 93 57 m 151 326 l 86 861 q 82 898 83 882 q 81 925 81 915 q 115 1019 81 985 q 210 1053 149 1053 q 306 1019 271 1053 q 340 925 340 985 q 339 898 340 915 q 335 861 338 882 l 268 326 l 151 326 z "},"\"":{"ha":460,"x_min":54,"x_max":406,"o":"m 275 975 l 406 975 l 406 596 l 275 596 l 275 975 m 54 975 l 184 975 l 184 596 l 54 596 l 54 975 z "},"#":{"ha":1068,"x_min":31,"x_max":1038,"o":"m 481 575 l 421 410 l 591 410 l 650 575 l 481 575 m 481 993 l 631 993 l 532 711 l 696 711 l 796 993 l 946 993 l 846 711 l 1038 711 l 987 575 l 798 575 l 741 411 l 937 411 l 889 275 l 692 275 l 591 -7 l 441 -7 l 542 275 l 376 275 l 275 -7 l 126 -7 l 225 275 l 31 275 l 82 411 l 273 411 l 332 575 l 129 575 l 179 711 l 380 711 l 481 993 z "},"$":{"ha":842,"x_min":75,"x_max":779,"o":"m 78 98 l 78 357 l 311 357 l 311 336 q 341 226 311 261 q 432 191 370 191 q 510 220 480 191 q 541 298 541 250 q 509 377 541 345 q 397 439 477 409 q 345 458 380 446 q 174 541 224 501 q 99 631 122 581 q 75 753 75 682 q 138 944 75 870 q 325 1044 201 1017 l 325 1116 l 524 1116 l 524 1044 q 651 1005 593 1030 q 761 940 709 979 l 761 697 l 533 697 l 533 715 q 505 817 533 782 q 422 851 477 851 q 340 825 371 851 q 309 755 309 799 q 343 687 309 715 q 500 618 377 660 q 721 493 663 562 q 779 302 779 425 q 711 94 779 177 q 524 -11 644 11 l 524 -79 l 325 -79 l 325 -12 q 190 30 252 1 q 78 98 127 58 z "},"%":{"ha":1093,"x_min":37,"x_max":1054,"o":"m 785 313 l 785 165 q 799 103 785 123 q 842 83 812 83 q 886 103 871 83 q 900 165 900 123 l 900 313 q 886 375 900 355 q 842 395 872 395 q 798 375 812 395 q 785 313 785 356 m 629 288 q 676 437 629 394 q 842 479 723 479 q 1007 437 961 479 q 1054 288 1054 395 l 1054 189 q 1008 42 1054 83 q 842 0 963 0 q 675 42 721 0 q 629 189 629 83 l 629 288 m 192 867 l 192 718 q 206 657 192 676 q 250 637 220 637 q 294 657 280 637 q 309 718 309 676 l 309 867 q 294 928 309 908 q 250 947 280 947 q 206 928 220 947 q 192 867 192 908 m 37 842 q 83 991 37 949 q 249 1032 128 1032 q 415 990 369 1032 q 461 842 461 948 l 461 743 q 415 595 461 637 q 249 553 368 553 q 83 594 129 553 q 37 743 37 635 l 37 842 m 335 0 l 161 0 l 755 1032 l 929 1032 l 335 0 z "},"&":{"ha":869,"x_min":65,"x_max":806,"o":"m 546 216 l 546 467 l 449 467 q 340 438 371 467 q 309 345 309 410 q 342 245 309 275 q 463 216 376 216 l 546 216 m 765 0 l 415 0 q 144 71 222 0 q 65 307 65 141 q 105 470 65 408 q 225 554 145 532 q 116 643 152 588 q 79 775 79 698 q 170 978 79 904 q 418 1051 260 1051 q 595 1026 507 1051 q 765 953 683 1002 l 765 775 l 538 775 q 507 826 534 806 q 439 846 479 846 q 356 817 386 846 q 326 736 326 788 q 361 658 326 683 q 471 633 395 633 l 546 633 l 546 669 l 765 669 l 765 633 l 806 633 l 806 467 l 765 467 l 765 0 z "},"'":{"ha":239,"x_min":54,"x_max":184,"o":"m 54 975 l 184 975 l 184 596 l 54 596 l 54 975 z "},"(":{"ha":538,"x_min":82,"x_max":492,"o":"m 492 -155 l 382 -231 q 156 99 229 -66 q 82 444 82 265 q 155 789 82 624 q 382 1120 229 954 l 492 1044 q 358 753 404 908 q 311 444 311 599 q 358 136 311 290 q 492 -155 404 -18 z "},")":{"ha":538,"x_min":46,"x_max":456,"o":"m 46 -155 q 179 134 133 -20 q 225 444 225 288 q 179 756 225 602 q 46 1044 133 910 l 154 1120 q 382 788 308 953 q 456 444 456 623 q 382 100 456 266 q 154 -231 308 -66 l 46 -155 z "},"*":{"ha":579,"x_min":58,"x_max":519,"o":"m 236 586 l 236 732 l 104 661 l 58 747 l 183 819 l 58 892 l 104 979 l 236 909 l 236 1053 l 340 1053 l 340 909 l 468 979 l 519 892 l 390 819 l 519 747 l 468 661 l 340 732 l 340 586 l 236 586 z "},"+":{"ha":1157,"x_min":172,"x_max":985,"o":"m 510 828 l 647 828 l 647 482 l 985 482 l 985 347 l 647 347 l 647 0 l 510 0 l 510 347 l 172 347 l 172 482 l 510 482 l 510 828 z "},",":{"ha":421,"x_min":104,"x_max":321,"o":"m 163 -131 l 127 -78 q 174 -37 157 -57 q 196 1 191 -18 q 128 37 151 9 q 104 106 104 64 q 135 179 104 149 q 211 208 166 208 q 290 175 259 208 q 321 89 321 142 q 279 -31 321 27 q 163 -131 237 -90 z "},"-":{"ha":530,"x_min":79,"x_max":452,"o":"m 79 307 l 79 473 l 452 473 l 452 307 l 79 307 z "},".":{"ha":421,"x_min":100,"x_max":321,"o":"m 100 97 q 133 175 100 142 q 211 208 166 208 q 289 176 257 208 q 321 97 321 143 q 289 20 321 52 q 211 -12 256 -12 q 133 21 167 -12 q 100 97 100 54 z "},"/":{"ha":450,"x_min":-65,"x_max":482,"o":"m 118 -129 l -65 -129 l 298 1032 l 482 1032 l 118 -129 z "},":":{"ha":421,"x_min":100,"x_max":321,"o":"m 100 511 q 133 588 100 555 q 211 621 166 621 q 289 589 257 621 q 321 511 321 557 q 288 433 321 465 q 211 400 256 400 q 134 434 168 400 q 100 511 100 467 m 100 97 q 133 175 100 142 q 211 208 166 208 q 289 176 257 208 q 321 97 321 143 q 289 20 321 52 q 211 -12 256 -12 q 133 21 167 -12 q 100 97 100 54 z "},";":{"ha":421,"x_min":100,"x_max":321,"o":"m 163 -131 l 127 -78 q 174 -37 157 -57 q 196 1 191 -18 q 128 37 151 9 q 104 106 104 64 q 135 179 104 149 q 211 208 166 208 q 290 175 259 208 q 321 89 321 142 q 279 -31 321 27 q 163 -131 237 -90 m 100 511 q 133 588 100 555 q 211 621 166 621 q 289 589 257 621 q 321 511 321 557 q 288 433 321 465 q 211 400 256 400 q 134 434 168 400 q 100 511 100 467 z "},"<":{"ha":1157,"x_min":179,"x_max":978,"o":"m 978 810 l 978 661 l 372 414 l 978 167 l 978 18 l 179 347 l 179 482 l 978 810 z "},"=":{"ha":1157,"x_min":172,"x_max":985,"o":"m 172 336 l 985 336 l 985 201 l 172 201 l 172 336 m 172 628 l 985 628 l 985 493 l 172 493 l 172 628 z "},">":{"ha":1157,"x_min":179,"x_max":978,"o":"m 179 810 l 978 482 l 978 347 l 179 18 l 179 167 l 786 414 l 179 661 l 179 810 z "},"?":{"ha":772,"x_min":57,"x_max":730,"o":"m 179 104 q 214 186 179 151 q 296 221 248 221 q 378 187 345 221 q 412 104 412 153 q 378 22 412 56 q 296 -12 343 -12 q 214 22 249 -12 q 179 104 179 57 m 183 325 l 183 396 q 202 501 183 465 q 279 579 222 537 q 370 640 311 603 q 493 779 493 720 q 465 846 493 823 q 382 869 436 869 q 307 838 333 869 q 281 749 281 807 l 281 721 l 57 721 l 57 957 q 204 1028 122 1004 q 382 1053 287 1053 q 643 982 556 1053 q 730 768 730 911 q 547 484 730 602 l 544 481 q 516 464 535 476 q 411 336 411 399 l 411 325 l 183 325 z "},"@":{"ha":1389,"x_min":61,"x_max":1329,"o":"m 791 184 q 705 101 754 127 q 590 74 656 74 q 427 132 483 74 q 371 304 371 191 q 466 576 371 467 q 699 686 560 686 q 793 664 753 686 q 859 597 833 642 l 895 664 l 1015 664 l 916 258 q 912 243 913 251 q 911 231 911 235 q 927 195 911 207 q 975 183 943 183 q 1030 197 1002 183 q 1084 235 1059 210 q 1173 361 1143 289 q 1203 521 1203 434 q 1077 788 1203 684 q 753 893 951 893 q 575 870 657 893 q 425 802 492 847 q 248 608 310 724 q 186 354 186 492 q 326 21 186 146 q 701 -103 467 -103 q 916 -70 811 -103 q 1111 26 1021 -37 l 1166 -53 q 946 -170 1063 -131 q 704 -210 830 -210 q 465 -177 574 -210 q 271 -79 355 -144 q 113 110 165 3 q 61 353 61 217 q 97 569 61 466 q 201 755 132 671 q 443 941 302 878 q 757 1004 584 1004 q 972 974 871 1004 q 1147 886 1073 943 q 1284 724 1239 815 q 1329 518 1329 633 q 1285 312 1329 406 q 1157 150 1240 217 q 1054 92 1109 112 q 937 72 998 72 q 829 100 865 72 q 791 184 793 129 m 825 475 q 786 558 817 530 q 707 587 756 587 q 572 503 629 587 q 515 301 515 419 q 543 206 515 239 q 623 174 570 174 q 725 216 679 174 q 789 328 772 259 l 825 475 z "},"A":{"ha":829,"x_min":32,"x_max":815,"o":"m 32 0 l 32 174 q 70 202 56 181 q 94 282 83 222 l 240 1032 l 595 1032 l 755 265 q 779 200 766 218 q 815 174 791 181 l 815 0 l 464 0 l 464 174 q 502 189 488 176 q 515 222 515 201 q 515 236 515 228 q 513 252 514 243 l 504 296 l 304 296 l 296 256 q 294 238 294 245 q 293 225 293 231 q 306 187 293 199 q 349 174 319 175 l 349 0 l 32 0 m 330 443 l 471 443 l 400 838 l 330 443 z "},"B":{"ha":895,"x_min":69,"x_max":829,"o":"m 361 624 l 453 624 q 549 647 521 624 q 578 724 578 671 q 549 808 578 783 q 453 833 521 833 l 361 833 l 361 624 m 361 201 l 465 201 q 565 230 534 201 q 595 323 595 258 q 563 418 595 389 q 460 447 531 447 l 361 447 l 361 201 m 69 0 l 69 174 q 111 199 100 180 q 122 281 122 218 l 122 758 q 111 840 122 821 q 69 865 100 859 l 69 1032 l 467 1032 q 730 965 648 1032 q 812 751 812 898 q 775 607 812 665 q 668 526 738 549 q 790 440 750 501 q 829 279 829 380 q 749 65 829 130 q 479 0 669 0 l 69 0 z "},"C":{"ha":839,"x_min":74,"x_max":754,"o":"m 74 685 q 83 846 74 797 q 114 930 92 895 q 226 1023 152 994 q 421 1053 300 1053 q 589 1034 506 1053 q 754 977 673 1015 l 754 685 l 529 685 l 529 705 q 502 810 529 776 q 421 844 475 844 q 337 809 363 844 q 311 693 311 774 l 311 339 q 337 222 311 258 q 421 187 363 187 q 504 222 478 187 q 529 339 529 257 l 529 412 l 754 412 l 754 58 q 594 -1 680 20 q 421 -21 508 -21 q 240 3 311 -21 q 129 79 170 28 q 86 171 99 117 q 74 347 74 224 l 74 685 z "},"D":{"ha":885,"x_min":69,"x_max":811,"o":"m 361 207 l 431 207 q 544 235 515 207 q 572 351 572 262 l 572 663 q 545 798 572 766 q 443 829 517 829 l 429 829 l 361 828 l 361 207 m 412 0 l 69 0 l 69 174 q 111 199 100 180 q 122 281 122 218 l 122 758 q 111 840 122 821 q 69 865 100 859 l 69 1032 l 412 1032 q 726 948 642 1032 q 811 643 811 865 l 811 396 q 730 81 811 163 q 412 0 650 0 z "},"E":{"ha":856,"x_min":69,"x_max":796,"o":"m 69 0 l 69 174 q 111 199 100 180 q 122 281 122 218 l 122 758 q 111 840 122 821 q 69 865 100 859 l 69 1032 l 796 1032 l 796 717 l 572 717 l 572 728 q 545 811 572 787 q 449 835 518 835 l 361 835 l 361 619 l 643 619 l 643 446 l 361 446 l 361 197 l 465 197 q 549 221 526 197 q 572 309 572 244 l 572 346 l 796 346 l 796 0 l 69 0 z "},"F":{"ha":819,"x_min":69,"x_max":778,"o":"m 69 0 l 69 174 q 111 199 100 180 q 122 281 122 218 l 122 758 q 111 840 122 821 q 69 865 100 859 l 69 1032 l 778 1032 l 778 715 l 568 715 l 568 725 q 543 807 568 783 q 453 831 517 831 l 361 831 l 361 621 l 629 621 l 629 447 l 361 447 l 361 281 q 373 198 361 219 q 414 174 385 176 l 414 0 l 69 0 z "},"G":{"ha":839,"x_min":74,"x_max":754,"o":"m 74 685 q 83 846 74 797 q 114 930 92 895 q 226 1023 152 994 q 421 1053 300 1053 q 589 1034 506 1053 q 754 977 673 1015 l 754 703 l 529 703 l 529 708 q 502 811 529 777 q 421 844 475 844 q 337 809 363 844 q 311 693 311 774 l 311 339 q 337 222 311 258 q 421 187 363 187 q 504 222 478 187 q 529 339 529 257 l 529 375 l 433 375 l 433 541 l 754 541 l 754 77 q 597 4 682 28 q 421 -21 513 -21 q 240 3 311 -21 q 129 79 170 28 q 86 172 99 118 q 74 347 74 226 l 74 685 z "},"H":{"ha":942,"x_min":69,"x_max":872,"o":"m 361 281 q 372 198 361 216 q 412 174 382 180 l 412 0 l 69 0 l 69 174 q 111 199 100 180 q 122 281 122 218 l 122 758 q 111 840 122 821 q 69 865 100 859 l 69 1032 l 412 1032 l 412 865 q 372 840 383 859 q 361 758 361 822 l 361 621 l 581 621 l 581 758 q 570 841 581 823 q 529 865 559 859 l 529 1032 l 872 1032 l 872 865 q 831 840 842 859 q 819 758 819 821 l 819 281 q 830 199 819 218 q 872 174 842 180 l 872 0 l 529 0 l 529 174 q 570 198 559 180 q 581 281 581 216 l 581 446 l 361 446 l 361 281 z "},"I":{"ha":492,"x_min":74,"x_max":416,"o":"m 366 281 q 376 198 366 216 q 416 174 387 180 l 416 0 l 74 0 l 74 174 q 115 199 104 180 q 126 281 126 218 l 126 758 q 115 840 126 821 q 74 865 104 859 l 74 1032 l 416 1032 l 416 865 q 376 840 387 859 q 366 758 366 822 l 366 281 z "},"J":{"ha":504,"x_min":45,"x_max":444,"o":"m 392 335 q 387 164 392 210 q 368 92 381 119 q 293 8 341 35 q 172 -20 244 -20 q 107 -14 140 -20 q 45 4 75 -7 l 45 157 q 56 156 50 156 q 72 155 61 155 q 135 181 117 155 q 153 281 153 207 l 153 758 q 142 841 153 823 q 102 865 131 859 l 102 1032 l 444 1032 l 444 865 q 403 840 414 859 q 392 758 392 821 l 392 335 z "},"K":{"ha":851,"x_min":69,"x_max":836,"o":"m 410 1032 l 410 865 q 369 841 380 859 q 358 758 358 823 l 358 582 l 488 778 q 512 828 505 802 q 519 897 519 854 l 519 916 l 519 1032 l 810 1032 l 810 865 q 769 845 787 859 q 734 806 751 831 l 581 572 l 775 224 q 803 187 791 197 q 836 174 816 178 l 836 0 l 519 0 l 519 134 q 513 202 519 173 q 493 256 507 231 l 358 500 l 358 281 q 369 198 358 216 q 410 174 380 180 l 410 0 l 69 0 l 69 174 q 111 199 100 180 q 122 281 122 218 l 122 758 q 111 840 122 821 q 69 865 100 859 l 69 1032 l 410 1032 z "},"L":{"ha":800,"x_min":69,"x_max":766,"o":"m 766 0 l 69 0 l 69 174 q 111 199 100 180 q 122 281 122 218 l 122 758 q 111 840 122 821 q 69 865 100 859 l 69 1032 l 412 1032 l 412 865 q 372 840 383 859 q 361 758 361 822 l 361 196 l 439 196 q 534 224 508 196 q 559 354 559 253 l 559 468 l 766 468 l 766 0 z "},"M":{"ha":1133,"x_min":66,"x_max":1067,"o":"m 313 793 l 313 272 q 323 197 313 215 q 366 174 334 178 l 366 0 l 66 0 l 66 174 q 109 196 96 174 q 122 265 122 218 l 122 762 q 110 834 122 812 q 66 864 97 857 l 66 1032 l 433 1032 l 567 444 l 694 1032 l 1067 1032 l 1067 864 q 1023 838 1035 856 q 1011 758 1011 821 l 1011 290 q 1023 200 1011 222 q 1067 174 1035 178 l 1067 0 l 728 0 l 728 174 q 768 201 757 179 q 779 290 779 224 l 779 777 l 597 0 l 500 0 l 313 793 z "},"N":{"ha":932,"x_min":69,"x_max":871,"o":"m 69 0 l 70 174 q 111 197 100 178 q 122 278 122 217 l 122 777 q 111 840 122 822 q 70 865 99 859 l 69 1032 l 339 1032 l 599 452 l 599 761 q 586 838 599 816 q 543 865 574 860 l 543 1032 l 871 1032 l 871 865 q 827 836 839 856 q 815 750 815 817 l 815 0 l 599 0 l 339 586 l 339 278 q 351 199 339 220 q 393 174 362 178 l 393 0 l 69 0 z "},"O":{"ha":840,"x_min":74,"x_max":766,"o":"m 311 693 l 311 339 q 337 222 311 258 q 421 187 363 187 q 504 222 478 187 q 529 339 529 257 l 529 693 q 504 809 529 774 q 421 844 478 844 q 337 809 363 844 q 311 693 311 774 m 74 685 q 86 863 74 810 q 129 953 99 915 q 240 1028 170 1004 q 421 1053 311 1053 q 600 1028 530 1053 q 711 953 669 1004 q 754 861 741 915 q 766 685 766 807 l 766 347 q 754 171 766 224 q 711 79 741 117 q 600 3 669 28 q 421 -21 530 -21 q 240 3 311 -21 q 129 79 170 28 q 86 169 99 117 q 74 347 74 221 l 74 685 z "},"P":{"ha":851,"x_min":69,"x_max":814,"o":"m 361 542 l 450 542 q 552 570 527 542 q 578 673 578 597 q 551 783 578 753 q 452 812 525 812 l 361 812 l 361 542 m 361 281 q 372 198 361 216 q 412 174 382 180 l 412 0 l 69 0 l 69 174 q 111 199 100 180 q 122 281 122 218 l 122 758 q 111 840 122 821 q 69 865 100 859 l 69 1032 l 478 1032 q 736 956 659 1032 q 814 700 814 879 q 741 400 814 480 q 478 319 667 319 l 361 319 l 361 281 z "},"Q":{"ha":840,"x_min":74,"x_max":783,"o":"m 311 693 l 311 339 q 337 222 311 258 q 421 187 363 187 q 504 222 478 187 q 529 339 529 257 l 529 693 q 504 809 529 774 q 421 844 478 844 q 337 809 363 844 q 311 693 311 774 m 74 685 q 86 863 74 810 q 129 953 99 915 q 240 1028 170 1004 q 421 1053 311 1053 q 600 1028 530 1053 q 711 953 669 1004 q 754 861 741 915 q 766 685 766 807 l 766 347 q 754 174 766 229 q 714 82 743 119 q 746 56 728 67 q 783 35 763 44 l 696 -117 q 601 -74 646 -99 q 513 -16 555 -49 q 458 -20 478 -18 q 421 -21 438 -21 q 240 3 311 -21 q 129 79 170 28 q 86 170 99 117 q 74 347 74 222 l 74 685 z "},"R":{"ha":900,"x_min":69,"x_max":835,"o":"m 361 593 l 454 593 q 550 622 520 593 q 581 714 581 651 q 550 808 581 778 q 457 839 520 839 l 361 839 l 361 593 m 361 281 q 372 198 361 216 q 412 174 382 180 l 412 0 l 69 0 l 69 174 q 111 199 100 180 q 122 281 122 218 l 122 758 q 111 840 122 821 q 69 865 100 859 l 69 1032 l 475 1032 q 734 961 653 1032 q 815 734 815 890 q 775 578 815 639 q 659 496 735 517 q 761 444 732 479 q 790 334 790 408 l 790 278 q 800 200 790 220 q 835 174 810 179 l 835 0 l 579 0 q 563 54 568 24 q 558 151 558 84 l 558 283 q 533 386 558 360 q 435 411 507 411 l 361 411 l 361 281 z "},"S":{"ha":836,"x_min":69,"x_max":774,"o":"m 74 98 l 74 357 l 306 357 l 306 336 q 335 226 306 261 q 427 191 365 191 q 505 220 475 191 q 534 298 534 250 q 503 377 534 345 q 392 439 471 409 q 341 458 374 446 q 170 541 220 501 q 93 632 117 581 q 69 753 69 682 q 163 972 69 892 q 418 1053 257 1053 q 596 1025 512 1053 q 755 940 680 997 l 755 697 l 528 697 l 528 715 q 499 817 528 782 q 416 851 471 851 q 335 825 366 851 q 304 755 304 799 q 339 687 304 715 q 496 618 373 660 q 715 494 657 563 q 774 302 774 426 q 680 67 774 155 q 427 -21 586 -21 q 236 9 326 -21 q 74 98 146 40 z "},"T":{"ha":890,"x_min":39,"x_max":850,"o":"m 325 836 q 253 807 275 835 q 231 718 231 780 l 231 614 l 39 614 l 39 1032 l 850 1032 l 850 614 l 660 614 l 660 718 q 637 808 660 781 q 564 836 615 835 l 564 281 q 574 198 564 216 q 615 174 585 180 l 615 0 l 272 0 l 272 174 q 314 199 302 180 q 325 281 325 218 l 325 836 z "},"U":{"ha":900,"x_min":64,"x_max":836,"o":"m 64 865 l 64 1032 l 410 1032 l 410 865 q 369 832 380 855 q 357 741 357 809 l 357 340 q 382 223 357 259 q 465 187 408 187 q 550 224 522 187 q 578 336 578 261 l 578 770 q 566 836 578 815 q 524 865 553 857 l 524 1032 l 836 1032 l 836 865 q 793 837 805 859 q 781 755 781 816 l 781 328 q 766 176 781 228 q 717 82 751 123 q 608 6 675 33 q 460 -21 542 -21 q 199 63 278 -21 q 121 345 121 146 l 121 761 q 109 834 121 816 q 64 865 98 853 z "},"V":{"ha":827,"x_min":22,"x_max":811,"o":"m 245 0 l 86 774 q 63 838 77 820 q 22 865 50 856 l 22 1032 l 379 1032 l 379 865 q 338 846 351 859 q 326 810 326 833 q 327 793 326 801 q 330 777 328 785 l 443 196 l 546 770 q 548 786 547 777 q 549 808 549 795 q 536 847 549 834 q 494 865 524 860 l 494 1032 l 811 1032 l 811 865 q 774 835 788 856 q 753 775 761 814 l 602 0 l 245 0 z "},"W":{"ha":1181,"x_min":12,"x_max":1156,"o":"m 216 0 l 74 770 q 52 834 66 812 q 12 864 37 856 l 12 1032 l 354 1032 l 354 864 q 320 850 330 861 q 310 812 310 839 q 311 791 310 802 q 313 770 311 781 l 392 290 l 517 1032 l 699 1032 l 835 294 l 896 760 q 899 786 897 768 q 901 810 901 804 q 891 845 901 833 q 857 864 882 857 l 857 1032 l 1156 1032 l 1156 864 q 1117 834 1130 853 q 1096 760 1104 814 l 975 0 l 696 0 l 590 566 l 500 0 l 216 0 z "},"X":{"ha":799,"x_min":37,"x_max":770,"o":"m 37 0 l 37 174 q 64 194 53 182 q 87 228 75 205 l 261 545 l 110 808 q 86 843 98 831 q 57 864 74 855 l 57 1032 l 347 1032 l 347 929 q 352 879 347 900 q 370 835 357 858 l 427 724 l 485 833 q 500 876 496 854 q 505 929 505 897 l 505 940 l 505 1032 l 754 1032 l 754 864 q 725 844 738 857 q 701 811 711 831 l 550 518 l 707 241 q 738 197 724 211 q 770 174 751 182 l 770 0 l 461 0 l 461 131 q 455 188 461 161 q 435 240 448 214 l 379 350 l 319 239 q 298 186 305 212 q 292 117 292 160 l 292 0 l 37 0 z "},"Y":{"ha":765,"x_min":16,"x_max":762,"o":"m 216 0 l 217 174 q 258 202 246 180 q 271 271 271 224 l 271 396 l 71 804 q 44 847 57 832 q 16 865 31 861 l 16 1032 l 318 1032 l 318 905 q 323 842 318 866 q 338 796 328 818 l 407 653 l 475 790 q 492 840 486 813 q 497 905 497 867 l 497 1032 l 762 1032 l 762 865 q 734 846 747 861 q 707 806 721 832 l 509 408 l 509 273 q 520 197 509 216 q 561 174 531 178 l 561 0 l 216 0 z "},"Z":{"ha":836,"x_min":62,"x_max":768,"o":"m 62 0 l 62 151 l 473 836 l 407 836 q 290 813 316 836 q 264 725 264 790 l 264 686 l 75 686 l 75 1032 l 762 1032 l 762 878 l 364 204 l 437 204 q 535 226 509 204 q 561 306 561 248 l 561 340 l 768 340 l 768 0 l 62 0 z "},"[":{"ha":538,"x_min":125,"x_max":476,"o":"m 476 1032 l 476 958 l 322 958 l 322 -66 l 476 -66 l 476 -140 l 125 -140 l 125 1032 l 476 1032 z "},"\\":{"ha":450,"x_min":-32,"x_max":515,"o":"m 332 -129 l -32 1032 l 151 1032 l 515 -129 l 332 -129 z "},"]":{"ha":538,"x_min":61,"x_max":412,"o":"m 61 1032 l 412 1032 l 412 -140 l 61 -140 l 61 -66 l 215 -66 l 215 958 l 61 958 l 61 1032 z "},"^":{"ha":1389,"x_min":282,"x_max":1105,"o":"m 608 990 l 779 990 l 1105 610 l 946 610 l 694 861 l 441 610 l 282 610 l 608 990 z "},"_":{"ha":694,"x_min":0,"x_max":694,"o":"m 0 -189 l 694 -189 l 694 -328 l 0 -328 l 0 -189 z "},"`":{"ha":694,"x_min":149,"x_max":457,"o":"m 149 1099 l 323 1099 l 457 847 l 361 847 l 149 1099 z "},"a":{"ha":768,"x_min":49,"x_max":721,"o":"m 458 357 q 310 282 345 311 q 275 214 275 254 q 292 169 275 186 q 336 153 308 153 q 396 172 364 153 q 458 227 428 191 l 458 357 m 467 79 q 361 11 418 35 q 244 -12 304 -12 q 101 44 154 -12 q 49 197 49 100 q 124 359 49 297 q 458 501 199 420 l 458 545 q 440 609 458 589 q 382 629 422 629 q 323 608 342 629 q 304 542 304 586 l 304 518 l 92 518 l 92 693 q 244 752 168 732 q 393 772 321 772 q 606 713 541 772 q 671 517 671 653 l 671 264 q 681 179 671 199 q 721 154 692 159 l 721 0 l 467 0 l 467 79 z "},"b":{"ha":803,"x_min":46,"x_max":734,"o":"m 311 184 q 357 160 331 169 q 411 151 383 151 q 491 183 467 151 q 515 290 515 215 l 515 469 q 491 573 515 541 q 411 606 466 606 q 361 597 387 606 q 311 571 336 588 l 311 184 m 93 85 l 93 786 q 83 851 93 833 q 46 880 73 869 l 46 1032 l 311 1032 l 311 717 q 402 756 356 743 q 494 770 449 770 q 677 706 619 770 q 734 505 734 643 l 734 275 q 654 59 734 130 q 411 -12 574 -12 q 253 12 333 -12 q 93 85 173 37 z "},"c":{"ha":729,"x_min":68,"x_max":663,"o":"m 465 476 l 465 500 q 443 589 465 561 q 374 618 420 618 q 304 588 326 618 q 282 490 282 557 l 282 269 q 303 172 282 201 q 374 143 325 143 q 444 172 422 143 q 465 269 465 200 l 465 314 l 663 314 l 663 69 q 528 9 603 31 q 374 -12 452 -12 q 140 51 213 -12 q 68 257 68 115 l 68 501 q 139 707 68 641 q 363 772 211 772 q 515 752 439 772 q 663 690 591 731 l 663 476 l 465 476 z "},"d":{"ha":804,"x_min":68,"x_max":739,"o":"m 286 292 q 309 182 286 214 q 386 151 332 151 q 434 160 411 151 q 481 187 457 169 l 481 572 q 427 594 452 587 q 379 602 402 602 q 308 567 329 602 q 286 446 286 533 l 286 292 m 68 262 l 68 507 q 74 601 68 569 q 92 659 79 633 q 168 738 117 711 q 292 765 218 765 q 383 752 336 765 q 481 714 429 740 l 481 775 q 471 852 481 833 q 433 878 460 871 l 433 1032 l 693 1032 l 693 249 q 703 176 693 192 q 739 151 713 160 l 739 0 l 481 0 l 481 47 q 386 6 433 20 q 292 -8 338 -8 q 121 55 174 -8 q 68 262 68 119 z "},"e":{"ha":733,"x_min":68,"x_max":675,"o":"m 282 490 l 282 469 l 465 469 l 465 500 q 443 589 465 561 q 374 618 420 618 q 304 588 326 618 q 282 490 282 557 m 282 269 q 303 172 282 201 q 374 143 325 143 q 442 170 419 143 q 465 252 465 197 l 465 256 l 675 256 l 675 75 q 532 10 610 33 q 374 -12 455 -12 q 140 51 213 -12 q 68 257 68 115 l 68 501 q 141 708 68 644 q 374 772 214 772 q 603 708 531 772 q 675 501 675 643 l 675 335 l 282 335 l 282 269 z "},"f":{"ha":478,"x_min":78,"x_max":439,"o":"m 78 0 l 78 154 q 114 179 104 162 q 123 245 123 196 l 123 591 l 78 591 l 78 758 l 123 758 l 123 823 q 179 985 123 930 q 342 1040 235 1040 q 389 1037 364 1040 q 439 1027 413 1034 l 439 876 l 429 876 l 416 876 q 356 854 376 876 q 336 789 336 833 l 336 758 l 424 758 l 424 591 l 336 591 l 336 248 q 347 179 336 198 q 383 154 357 161 l 383 0 l 78 0 z "},"g":{"ha":798,"x_min":68,"x_max":739,"o":"m 481 197 l 481 571 q 434 598 457 589 q 386 607 411 607 q 309 576 332 607 q 286 467 286 545 l 286 322 q 308 201 286 235 q 379 167 329 167 q 426 174 401 167 q 481 197 450 181 m 481 54 q 382 15 429 28 q 289 3 336 3 q 178 25 225 3 q 103 90 132 47 q 76 158 84 119 q 68 281 68 197 l 68 298 l 68 496 q 121 704 68 640 q 292 768 174 768 q 384 754 337 768 q 481 711 431 740 l 481 758 l 739 758 l 739 607 q 703 582 713 598 q 693 510 693 566 l 693 41 q 683 -98 693 -53 q 647 -179 672 -144 q 547 -257 610 -231 q 400 -283 485 -283 q 245 -264 319 -283 q 100 -207 171 -245 l 100 -28 l 304 -28 l 304 -32 q 328 -101 304 -77 q 392 -126 351 -126 q 459 -99 438 -126 q 481 -12 481 -73 l 481 54 z "},"h":{"ha":817,"x_min":62,"x_max":770,"o":"m 62 0 l 62 154 q 99 181 89 158 q 110 269 110 205 l 110 783 q 100 853 110 836 q 62 880 90 870 l 62 1032 l 321 1032 l 321 711 q 408 749 364 736 q 492 762 451 762 q 667 702 614 762 q 720 494 720 642 l 720 260 q 730 176 720 196 q 769 154 741 156 l 770 0 l 529 0 q 512 80 517 33 q 507 229 507 127 l 507 467 q 485 575 507 543 q 411 607 463 607 q 367 598 389 607 q 321 571 344 589 l 321 257 q 331 180 321 199 q 368 154 341 161 l 368 0 l 62 0 z "},"i":{"ha":429,"x_min":65,"x_max":371,"o":"m 87 917 q 122 1002 87 966 q 207 1038 157 1038 q 292 1002 257 1038 q 328 917 328 966 q 292 832 328 867 q 207 798 256 798 q 123 833 159 798 q 87 917 87 869 m 325 257 q 335 179 325 197 q 371 154 345 161 l 371 0 l 65 0 l 65 154 q 102 181 92 158 q 113 269 113 205 l 113 510 q 103 579 113 562 q 65 607 93 597 l 65 758 l 325 758 l 325 257 z "},"j":{"ha":427,"x_min":35,"x_max":328,"o":"m 87 917 q 122 1002 87 966 q 207 1038 157 1038 q 292 1002 257 1038 q 328 917 328 966 q 292 832 328 867 q 207 798 256 798 q 123 833 159 798 q 87 917 87 869 m 325 65 q 279 -218 325 -154 q 118 -282 234 -282 q 80 -280 100 -282 q 35 -273 60 -278 l 35 -118 l 37 -118 q 97 -93 81 -118 q 113 31 113 -67 l 113 510 q 103 579 113 562 q 65 607 93 597 l 65 758 l 325 758 l 325 65 z "},"k":{"ha":757,"x_min":62,"x_max":734,"o":"m 110 783 q 100 853 110 836 q 62 880 90 870 l 62 1032 l 321 1032 l 321 475 l 412 602 q 436 646 429 623 q 443 699 443 669 l 443 758 l 717 758 l 716 606 q 672 588 693 601 q 632 553 651 575 l 530 439 l 659 214 q 691 174 673 188 q 734 154 709 160 l 734 0 l 550 0 q 514 40 531 18 q 478 97 498 62 l 321 383 l 321 257 q 331 181 321 200 q 368 155 340 163 l 368 0 l 62 0 l 62 155 q 99 182 89 159 q 110 269 110 205 l 110 783 z "},"l":{"ha":429,"x_min":65,"x_max":371,"o":"m 113 779 q 103 849 113 831 q 65 876 93 866 l 65 1028 l 325 1028 l 325 257 q 335 179 325 197 q 371 154 345 161 l 371 0 l 65 0 l 65 154 q 102 181 92 158 q 113 269 113 205 l 113 779 z "},"m":{"ha":1206,"x_min":64,"x_max":1158,"o":"m 676 686 q 781 743 726 724 q 893 762 836 762 q 1058 701 1007 762 q 1108 496 1108 640 l 1108 258 q 1119 177 1108 197 q 1158 154 1130 156 l 1158 0 l 920 0 q 903 73 908 29 q 899 229 899 117 l 899 467 q 877 575 899 543 q 804 607 854 607 q 761 598 783 607 q 713 571 739 589 l 713 258 q 723 177 713 197 q 762 154 734 157 l 762 0 l 525 0 q 508 78 513 31 q 503 229 503 125 l 503 467 q 481 575 503 543 q 408 607 459 607 q 365 598 387 607 q 319 571 342 589 l 319 257 q 329 179 319 197 q 366 154 339 161 l 366 0 l 64 0 l 64 154 q 100 180 90 159 q 110 269 110 201 l 110 518 q 100 581 110 566 q 64 607 90 597 l 64 758 l 319 758 l 319 711 q 406 749 363 736 q 488 762 448 762 q 597 744 552 762 q 676 686 643 726 z "},"n":{"ha":817,"x_min":62,"x_max":770,"o":"m 321 257 q 331 180 321 199 q 368 154 341 161 l 368 0 l 62 0 l 62 154 q 99 181 89 158 q 110 269 110 205 l 110 510 q 100 579 110 562 q 62 607 90 597 l 62 758 l 321 758 l 321 711 q 408 749 364 736 q 492 762 451 762 q 667 702 614 762 q 720 496 720 642 l 720 260 q 730 176 720 196 q 769 154 741 156 l 770 0 l 529 0 q 512 80 517 33 q 507 229 507 127 l 507 467 q 485 575 507 543 q 411 607 463 607 q 367 598 389 607 q 321 571 344 589 l 321 257 z "},"o":{"ha":746,"x_min":68,"x_max":677,"o":"m 460 490 q 439 588 460 559 q 374 618 419 618 q 307 588 328 618 q 286 490 286 558 l 286 269 q 307 172 286 201 q 374 143 327 143 q 439 172 419 143 q 460 269 460 201 l 460 490 m 677 501 l 677 257 q 606 51 677 115 q 374 -12 534 -12 q 140 51 213 -12 q 68 257 68 115 l 68 501 q 141 708 68 644 q 374 772 214 772 q 606 708 534 772 q 677 501 677 644 z "},"p":{"ha":804,"x_min":62,"x_max":734,"o":"m 517 467 q 494 576 517 545 q 416 607 471 607 q 368 598 392 607 q 321 571 344 589 l 321 187 q 376 164 351 172 q 424 157 401 157 q 495 191 474 157 q 517 313 517 225 l 517 467 m 734 496 l 734 289 q 683 58 734 123 q 510 -7 631 -7 q 418 6 465 -7 q 321 45 372 18 l 321 -12 q 331 -90 321 -71 q 368 -115 341 -109 l 368 -269 l 62 -269 l 63 -115 q 100 -89 90 -111 q 110 -1 110 -66 l 110 510 q 100 579 110 562 q 62 607 90 597 l 62 758 l 321 758 l 321 711 q 417 754 370 740 q 510 768 465 768 q 681 704 627 768 q 734 496 734 640 z "},"q":{"ha":800,"x_min":68,"x_max":739,"o":"m 286 467 l 286 313 q 308 191 286 225 q 379 157 329 157 q 426 164 401 157 q 481 187 450 172 l 481 571 q 434 598 457 589 q 386 607 411 607 q 309 576 332 607 q 286 467 286 545 m 68 496 q 121 704 68 640 q 292 768 174 768 q 384 754 337 768 q 481 711 431 740 l 481 758 l 693 758 l 693 -1 q 703 -90 693 -67 q 739 -115 713 -112 l 739 -269 l 433 -269 l 433 -115 q 471 -90 460 -109 q 481 -12 481 -71 l 481 45 q 383 6 429 18 q 292 -7 336 -7 q 119 57 170 -7 q 68 289 68 121 l 68 496 z "},"r":{"ha":490,"x_min":62,"x_max":465,"o":"m 321 257 q 331 180 321 199 q 368 154 341 161 l 368 0 l 62 0 l 62 154 q 99 181 89 158 q 110 269 110 205 l 110 510 q 100 579 110 562 q 62 607 90 597 l 62 758 l 311 758 l 311 696 q 365 745 334 728 q 433 761 396 761 q 462 759 444 761 q 465 758 464 758 l 465 536 q 457 537 463 536 q 431 539 438 539 q 347 504 373 539 q 321 390 321 468 l 321 257 z "},"s":{"ha":697,"x_min":53,"x_max":656,"o":"m 56 47 l 56 252 l 267 252 q 285 171 267 196 q 345 146 304 146 q 398 165 378 146 q 418 216 418 184 q 397 268 418 248 q 324 304 376 288 q 277 318 308 309 q 144 368 188 342 q 75 436 96 396 q 53 536 53 476 q 132 708 53 644 q 346 772 212 772 q 491 755 418 772 q 633 705 564 739 l 633 514 l 436 514 l 436 518 q 416 589 436 565 q 355 614 395 614 q 303 594 322 614 q 283 542 283 575 q 414 449 283 486 q 494 425 465 435 q 620 349 584 395 q 656 218 656 302 q 585 47 656 106 q 382 -12 515 -12 q 217 2 298 -12 q 56 47 137 17 z "},"t":{"ha":460,"x_min":56,"x_max":397,"o":"m 307 964 l 307 758 l 397 758 l 397 591 l 307 591 l 307 294 q 325 185 307 214 q 387 157 342 157 l 397 157 l 397 3 q 344 -9 370 -5 q 297 -14 319 -14 q 141 48 188 -14 q 94 278 94 111 l 94 591 l 56 591 l 56 758 l 94 758 l 94 899 l 307 964 z "},"u":{"ha":817,"x_min":61,"x_max":753,"o":"m 705 758 l 705 250 q 715 178 705 195 q 753 151 726 161 l 753 0 l 494 0 l 494 49 q 407 9 450 22 q 323 -4 363 -4 q 148 56 201 -4 q 96 264 96 117 l 96 494 q 88 576 96 553 q 61 604 80 599 l 61 758 l 286 758 q 303 680 298 726 q 309 530 309 633 l 309 292 q 331 184 309 217 q 401 151 353 151 q 447 161 424 151 q 494 189 470 170 l 494 501 q 485 578 494 559 q 447 604 475 597 l 447 758 l 705 758 z "},"v":{"ha":726,"x_min":21,"x_max":705,"o":"m 232 0 l 65 546 q 47 586 57 572 q 21 607 37 599 l 21 758 l 315 758 l 315 607 q 291 591 298 601 q 283 564 283 581 q 284 549 283 556 q 288 535 286 542 l 376 220 l 457 546 q 459 556 458 551 q 460 568 460 562 q 454 591 460 583 q 432 607 448 599 l 432 758 l 705 758 l 705 607 q 676 587 687 600 q 656 542 665 574 l 503 0 l 232 0 z "},"w":{"ha":1025,"x_min":8,"x_max":1013,"o":"m 215 0 l 58 536 q 39 581 50 566 q 8 607 28 595 l 8 758 l 304 758 l 304 607 q 280 594 287 603 q 273 568 273 586 q 274 549 273 554 q 275 538 274 543 l 336 273 l 457 758 l 590 758 l 703 273 l 764 536 q 767 552 766 543 q 768 570 768 561 q 762 592 768 583 q 742 607 755 601 l 742 758 l 1013 758 l 1013 607 q 982 586 995 602 q 962 545 969 570 l 814 0 l 608 0 l 513 410 l 418 0 l 215 0 z "},"x":{"ha":682,"x_min":24,"x_max":667,"o":"m 24 0 l 24 154 q 63 182 43 159 q 68 187 66 186 l 231 378 l 78 568 q 53 596 62 587 q 38 607 43 605 l 37 758 l 296 758 l 296 688 q 300 632 296 648 q 313 603 304 616 l 367 525 l 421 603 q 435 634 431 617 q 440 677 440 650 l 440 758 l 652 758 l 652 607 q 632 596 641 603 q 610 575 623 589 l 461 404 l 618 192 q 645 163 635 170 q 667 154 654 157 l 667 0 l 404 0 l 404 74 q 398 137 404 115 q 376 180 391 159 l 326 253 l 277 182 q 255 142 262 162 q 249 82 249 121 l 249 0 l 24 0 z "},"y":{"ha":711,"x_min":16,"x_max":697,"o":"m 509 31 q 395 -220 457 -158 q 222 -282 333 -282 q 188 -280 205 -282 q 151 -273 171 -278 l 151 -109 l 157 -109 q 217 -93 196 -109 q 253 -39 238 -78 l 66 533 q 43 585 56 568 q 16 607 31 603 l 16 758 l 313 758 l 313 607 q 292 593 298 603 q 285 568 285 584 q 286 554 285 562 q 289 538 287 547 l 370 201 l 441 537 q 445 552 444 544 q 446 567 446 559 q 439 591 446 582 q 418 607 433 600 l 418 758 l 697 758 l 697 607 q 668 586 679 600 q 648 539 657 572 l 509 31 z "},"z":{"ha":707,"x_min":41,"x_max":663,"o":"m 41 0 l 41 150 l 400 610 l 349 610 q 245 590 268 610 q 222 511 223 570 l 41 511 l 41 758 l 663 758 l 663 624 l 296 150 l 359 150 q 458 174 432 150 q 484 262 484 197 l 663 262 l 663 0 l 41 0 z "},"{":{"ha":694,"x_min":107,"x_max":599,"o":"m 599 1002 l 599 860 q 582 861 593 860 q 567 861 571 861 q 474 835 498 861 q 450 725 450 809 l 450 562 q 420 420 450 462 q 310 359 389 378 q 420 300 389 341 q 450 158 450 258 l 450 -5 q 474 -115 450 -89 q 567 -140 498 -140 q 582 -140 571 -140 q 599 -139 593 -139 l 599 -281 q 572 -281 589 -281 q 547 -282 555 -282 q 434 -274 479 -282 q 357 -249 389 -266 q 302 -187 318 -226 q 286 -52 286 -148 l 286 119 q 252 251 286 212 q 135 290 217 290 q 121 290 131 290 q 107 289 112 289 l 107 431 q 121 430 112 431 q 135 429 131 429 q 251 469 216 429 q 286 602 286 508 l 286 771 q 302 907 286 868 q 357 970 318 947 q 434 995 389 987 q 547 1003 479 1003 q 572 1002 555 1003 q 599 1002 589 1002 z "},"|":{"ha":694,"x_min":278,"x_max":418,"o":"m 278 1061 l 418 1061 l 418 -328 l 278 -328 l 278 1061 z "},"}":{"ha":694,"x_min":97,"x_max":589,"o":"m 97 1002 l 143 1002 q 263 994 218 1002 q 339 968 309 985 q 394 906 378 946 q 410 771 410 865 l 410 600 q 444 468 410 507 q 561 429 479 429 q 574 430 565 429 q 589 431 584 431 l 589 289 l 564 289 q 444 251 479 289 q 410 119 410 213 l 410 -52 q 394 -188 410 -149 q 339 -249 378 -227 q 262 -274 307 -266 q 149 -282 216 -282 q 123 -281 140 -282 q 97 -281 106 -281 l 97 -139 q 114 -140 103 -139 q 129 -140 125 -140 q 221 -114 197 -140 q 245 -5 245 -88 l 245 157 q 276 300 245 258 q 386 359 307 342 q 276 420 307 378 q 245 562 245 462 l 245 726 q 221 835 245 809 q 129 861 197 861 q 114 861 125 861 q 97 860 103 860 l 97 1002 z "},"~":{"ha":1157,"x_min":121,"x_max":1038,"o":"m 1038 545 l 1038 395 q 904 324 967 347 q 781 301 842 301 q 718 307 749 301 q 656 322 687 312 q 608 339 640 328 q 382 390 459 390 q 261 365 324 390 q 121 283 199 339 l 121 433 q 259 506 193 482 q 383 530 325 530 q 581 491 463 530 l 583 490 q 621 477 595 486 q 783 440 726 440 q 902 465 841 440 q 1038 545 963 490 z "},"Ä":{"ha":829,"x_min":32,"x_max":815,"o":"m 32 0 l 32 174 q 70 202 56 181 q 94 282 83 222 l 240 1032 l 595 1032 l 755 265 q 779 200 766 218 q 815 174 791 181 l 815 0 l 464 0 l 464 174 q 502 189 488 176 q 515 222 515 201 q 515 236 515 228 q 513 252 514 243 l 504 296 l 304 296 l 296 256 q 294 238 294 245 q 293 225 293 231 q 306 187 293 199 q 349 174 319 175 l 349 0 l 32 0 m 330 443 l 471 443 l 400 838 l 330 443 m 200 1253 q 227 1318 200 1291 q 292 1346 254 1346 q 357 1319 330 1346 q 385 1253 385 1291 q 357 1188 385 1215 q 292 1161 330 1161 q 228 1189 255 1161 q 200 1253 200 1217 m 446 1255 q 472 1319 446 1292 q 537 1346 499 1346 q 603 1319 576 1346 q 630 1255 630 1293 q 603 1188 630 1216 q 537 1161 575 1161 q 473 1189 500 1161 q 446 1255 446 1217 z "},"Å":{"ha":829,"x_min":32,"x_max":815,"o":"m 416 1240 q 358 1216 382 1240 q 334 1157 334 1192 q 357 1098 334 1122 q 416 1075 381 1075 q 475 1099 451 1075 q 498 1157 498 1122 q 475 1216 498 1192 q 416 1240 451 1240 m 32 0 l 32 174 q 70 202 56 181 q 94 282 83 222 l 240 1032 l 306 1032 q 254 1092 271 1058 q 236 1164 236 1125 q 289 1286 236 1234 q 415 1337 342 1337 q 544 1285 491 1337 q 596 1157 596 1233 q 579 1088 596 1120 q 529 1032 562 1057 l 595 1032 l 755 265 q 779 200 766 218 q 815 174 791 181 l 815 0 l 464 0 l 464 174 q 502 189 488 176 q 515 222 515 201 q 515 236 515 228 q 513 252 514 243 l 504 296 l 304 296 l 296 256 q 294 238 294 245 q 293 225 293 231 q 306 187 293 199 q 349 174 319 175 l 349 0 l 32 0 m 330 443 l 471 443 l 400 838 l 330 443 z "},"Ç":{"ha":839,"x_min":74,"x_max":754,"o":"m 74 685 q 83 846 74 797 q 114 930 92 895 q 226 1023 152 994 q 421 1053 300 1053 q 589 1034 506 1053 q 754 977 673 1015 l 754 685 l 529 685 l 529 705 q 502 810 529 776 q 421 844 475 844 q 337 809 363 844 q 311 693 311 774 l 311 339 q 337 222 311 258 q 421 187 363 187 q 504 222 478 187 q 529 339 529 257 l 529 412 l 754 412 l 754 58 q 594 -1 680 20 q 421 -21 508 -21 q 240 3 311 -21 q 129 79 170 28 q 86 171 99 117 q 74 347 74 224 l 74 685 m 386 0 l 454 0 l 454 -61 l 464 -61 q 583 -94 543 -61 q 623 -191 623 -126 q 578 -292 623 -258 q 444 -326 534 -326 q 365 -319 412 -326 q 264 -297 319 -311 l 264 -210 q 364 -232 321 -224 q 437 -239 408 -239 q 489 -227 472 -239 q 505 -189 505 -214 q 487 -153 505 -163 q 425 -142 468 -142 q 401 -142 410 -142 q 385 -143 392 -142 l 386 0 z "},"É":{"ha":856,"x_min":69,"x_max":796,"o":"m 69 0 l 69 174 q 111 199 100 180 q 122 281 122 218 l 122 758 q 111 840 122 821 q 69 865 100 859 l 69 1032 l 796 1032 l 796 717 l 572 717 l 572 728 q 545 811 572 787 q 449 835 518 835 l 361 835 l 361 619 l 643 619 l 643 446 l 361 446 l 361 197 l 465 197 q 549 221 526 197 q 572 309 572 244 l 572 346 l 796 346 l 796 0 l 69 0 m 452 1381 l 627 1381 l 414 1129 l 318 1129 l 452 1381 z "},"Ñ":{"ha":932,"x_min":69,"x_max":871,"o":"m 69 0 l 70 174 q 111 197 100 178 q 122 278 122 217 l 122 777 q 111 840 122 822 q 70 865 99 859 l 69 1032 l 339 1032 l 599 452 l 599 761 q 586 838 599 816 q 543 865 574 860 l 543 1032 l 871 1032 l 871 865 q 827 836 839 856 q 815 750 815 817 l 815 0 l 599 0 l 339 586 l 339 278 q 351 199 339 220 q 393 174 362 178 l 393 0 l 69 0 m 607 1348 l 682 1348 q 628 1222 663 1262 q 541 1182 594 1182 q 514 1184 526 1182 q 490 1189 502 1185 l 431 1207 q 409 1212 420 1211 q 386 1214 398 1214 q 349 1201 363 1214 q 326 1161 334 1189 l 252 1161 q 302 1282 268 1244 q 390 1321 336 1321 q 417 1319 402 1321 q 448 1312 432 1316 l 511 1295 q 514 1294 512 1295 q 549 1289 536 1289 q 584 1303 570 1289 q 607 1348 598 1316 z "},"Ö":{"ha":840,"x_min":74,"x_max":766,"o":"m 311 693 l 311 339 q 337 222 311 258 q 421 187 363 187 q 504 222 478 187 q 529 339 529 257 l 529 693 q 504 809 529 774 q 421 844 478 844 q 337 809 363 844 q 311 693 311 774 m 74 685 q 86 863 74 810 q 129 953 99 915 q 240 1028 170 1004 q 421 1053 311 1053 q 600 1028 530 1053 q 711 953 669 1004 q 754 861 741 915 q 766 685 766 807 l 766 347 q 754 171 766 224 q 711 79 741 117 q 600 3 669 28 q 421 -21 530 -21 q 240 3 311 -21 q 129 79 170 28 q 86 169 99 117 q 74 347 74 221 l 74 685 m 206 1253 q 233 1318 206 1291 q 298 1346 260 1346 q 363 1319 336 1346 q 391 1253 391 1291 q 363 1188 391 1215 q 298 1161 336 1161 q 234 1189 261 1161 q 206 1253 206 1217 m 452 1255 q 478 1319 452 1292 q 543 1346 505 1346 q 609 1319 582 1346 q 636 1255 636 1293 q 609 1188 636 1216 q 543 1161 581 1161 q 479 1189 506 1161 q 452 1255 452 1217 z "},"Ü":{"ha":900,"x_min":64,"x_max":836,"o":"m 64 865 l 64 1032 l 410 1032 l 410 865 q 369 832 380 855 q 357 741 357 809 l 357 340 q 382 223 357 259 q 465 187 408 187 q 550 224 522 187 q 578 336 578 261 l 578 770 q 566 836 578 815 q 524 865 553 857 l 524 1032 l 836 1032 l 836 865 q 793 837 805 859 q 781 755 781 816 l 781 328 q 766 176 781 228 q 717 82 751 123 q 608 6 675 33 q 460 -21 542 -21 q 199 63 278 -21 q 121 345 121 146 l 121 761 q 109 834 121 816 q 64 865 98 853 m 235 1253 q 262 1318 235 1291 q 327 1346 290 1346 q 393 1319 366 1346 q 420 1253 420 1291 q 392 1188 420 1215 q 327 1161 365 1161 q 263 1189 290 1161 q 235 1253 235 1217 m 481 1255 q 508 1319 481 1292 q 572 1346 534 1346 q 638 1319 611 1346 q 665 1255 665 1293 q 638 1188 665 1216 q 572 1161 610 1161 q 508 1189 535 1161 q 481 1255 481 1217 z "},"á":{"ha":768,"x_min":49,"x_max":721,"o":"m 458 357 q 310 282 345 311 q 275 214 275 254 q 292 169 275 186 q 336 153 308 153 q 396 172 364 153 q 458 227 428 191 l 458 357 m 467 79 q 361 11 418 35 q 244 -12 304 -12 q 101 44 154 -12 q 49 197 49 100 q 124 359 49 297 q 458 501 199 420 l 458 545 q 440 609 458 589 q 382 629 422 629 q 323 608 342 629 q 304 542 304 586 l 304 518 l 92 518 l 92 693 q 244 752 168 732 q 393 772 321 772 q 606 713 541 772 q 671 517 671 653 l 671 264 q 681 179 671 199 q 721 154 692 159 l 721 0 l 467 0 l 467 79 m 408 1099 l 583 1099 l 371 847 l 275 847 l 408 1099 z "},"à":{"ha":768,"x_min":49,"x_max":721,"o":"m 458 357 q 310 282 345 311 q 275 214 275 254 q 292 169 275 186 q 336 153 308 153 q 396 172 364 153 q 458 227 428 191 l 458 357 m 467 79 q 361 11 418 35 q 244 -12 304 -12 q 101 44 154 -12 q 49 197 49 100 q 124 359 49 297 q 458 501 199 420 l 458 545 q 440 609 458 589 q 382 629 422 629 q 323 608 342 629 q 304 542 304 586 l 304 518 l 92 518 l 92 693 q 244 752 168 732 q 393 772 321 772 q 606 713 541 772 q 671 517 671 653 l 671 264 q 681 179 671 199 q 721 154 692 159 l 721 0 l 467 0 l 467 79 m 186 1099 l 361 1099 l 494 847 l 398 847 l 186 1099 z "},"â":{"ha":768,"x_min":49,"x_max":721,"o":"m 458 357 q 310 282 345 311 q 275 214 275 254 q 292 169 275 186 q 336 153 308 153 q 396 172 364 153 q 458 227 428 191 l 458 357 m 467 79 q 361 11 418 35 q 244 -12 304 -12 q 101 44 154 -12 q 49 197 49 100 q 124 359 49 297 q 458 501 199 420 l 458 545 q 440 609 458 589 q 382 629 422 629 q 323 608 342 629 q 304 542 304 586 l 304 518 l 92 518 l 92 693 q 244 752 168 732 q 393 772 321 772 q 606 713 541 772 q 671 517 671 653 l 671 264 q 681 179 671 199 q 721 154 692 159 l 721 0 l 467 0 l 467 79 m 304 1099 l 465 1099 l 598 847 l 503 847 l 385 994 l 265 847 l 171 847 l 304 1099 z "},"ä":{"ha":768,"x_min":49,"x_max":721,"o":"m 458 357 q 310 282 345 311 q 275 214 275 254 q 292 169 275 186 q 336 153 308 153 q 396 172 364 153 q 458 227 428 191 l 458 357 m 467 79 q 361 11 418 35 q 244 -12 304 -12 q 101 44 154 -12 q 49 197 49 100 q 124 359 49 297 q 458 501 199 420 l 458 545 q 440 609 458 589 q 382 629 422 629 q 323 608 342 629 q 304 542 304 586 l 304 518 l 92 518 l 92 693 q 244 752 168 732 q 393 772 321 772 q 606 713 541 772 q 671 517 671 653 l 671 264 q 681 179 671 199 q 721 154 692 159 l 721 0 l 467 0 l 467 79 m 170 971 q 197 1036 170 1008 q 261 1064 224 1064 q 327 1037 300 1064 q 354 971 354 1009 q 327 906 354 933 q 261 879 299 879 q 197 907 224 879 q 170 971 170 935 m 415 972 q 442 1037 415 1010 q 507 1064 469 1064 q 572 1037 545 1064 q 600 972 600 1010 q 572 906 600 934 q 507 879 545 879 q 442 907 469 879 q 415 972 415 935 z "},"ã":{"ha":768,"x_min":49,"x_max":721,"o":"m 458 357 q 310 282 345 311 q 275 214 275 254 q 292 169 275 186 q 336 153 308 153 q 396 172 364 153 q 458 227 428 191 l 458 357 m 467 79 q 361 11 418 35 q 244 -12 304 -12 q 101 44 154 -12 q 49 197 49 100 q 124 359 49 297 q 458 501 199 420 l 458 545 q 440 609 458 589 q 382 629 422 629 q 323 608 342 629 q 304 542 304 586 l 304 518 l 92 518 l 92 693 q 244 752 168 732 q 393 772 321 772 q 606 713 541 772 q 671 517 671 653 l 671 264 q 681 179 671 199 q 721 154 692 159 l 721 0 l 467 0 l 467 79 m 525 1065 l 600 1065 q 546 940 581 980 q 458 900 512 900 q 432 902 444 900 q 408 907 420 903 l 349 925 q 327 930 338 928 q 304 932 316 932 q 267 919 281 932 q 244 879 252 907 l 170 879 q 220 1000 186 962 q 308 1039 254 1039 q 335 1037 320 1039 q 366 1029 350 1034 l 429 1013 q 432 1012 430 1013 q 467 1007 454 1007 q 502 1021 488 1007 q 525 1065 516 1034 z "},"å":{"ha":768,"x_min":49,"x_max":721,"o":"m 383 1079 q 325 1056 349 1079 q 301 997 301 1032 q 325 938 301 962 q 383 914 348 914 q 442 939 418 914 q 467 997 467 963 q 442 1055 467 1031 q 383 1079 418 1079 m 383 1178 q 511 1125 458 1178 q 564 997 564 1072 q 511 869 564 922 q 383 817 459 817 q 256 869 308 817 q 204 997 204 921 q 256 1125 204 1072 q 383 1178 309 1178 m 458 357 q 310 282 345 311 q 275 214 275 254 q 292 169 275 186 q 336 153 308 153 q 396 172 364 153 q 458 227 428 191 l 458 357 m 467 79 q 361 11 418 35 q 244 -12 304 -12 q 101 44 154 -12 q 49 197 49 100 q 124 359 49 297 q 458 501 199 420 l 458 545 q 440 609 458 589 q 382 629 422 629 q 323 608 342 629 q 304 542 304 586 l 304 518 l 92 518 l 92 693 q 244 752 168 732 q 393 772 321 772 q 606 713 541 772 q 671 517 671 653 l 671 264 q 681 179 671 199 q 721 154 692 159 l 721 0 l 467 0 l 467 79 z "},"ç":{"ha":729,"x_min":68,"x_max":663,"o":"m 465 476 l 465 500 q 443 589 465 561 q 374 618 420 618 q 304 588 326 618 q 282 490 282 557 l 282 269 q 303 172 282 201 q 374 143 325 143 q 444 172 422 143 q 465 269 465 200 l 465 314 l 663 314 l 663 69 q 528 9 603 31 q 374 -12 452 -12 q 140 51 213 -12 q 68 257 68 115 l 68 501 q 139 707 68 641 q 363 772 211 772 q 515 752 439 772 q 663 690 591 731 l 663 476 l 465 476 m 332 0 l 400 0 l 400 -61 l 410 -61 q 530 -94 490 -61 q 570 -191 570 -126 q 525 -292 570 -258 q 391 -326 480 -326 q 312 -319 358 -326 q 210 -297 265 -311 l 210 -210 q 311 -232 267 -224 q 384 -239 354 -239 q 435 -227 418 -239 q 452 -189 452 -214 q 433 -153 452 -163 q 371 -142 414 -142 q 348 -142 357 -142 q 331 -143 338 -142 l 332 0 z "},"é":{"ha":733,"x_min":68,"x_max":675,"o":"m 282 490 l 282 469 l 465 469 l 465 500 q 443 589 465 561 q 374 618 420 618 q 304 588 326 618 q 282 490 282 557 m 282 269 q 303 172 282 201 q 374 143 325 143 q 442 170 419 143 q 465 252 465 197 l 465 256 l 675 256 l 675 75 q 532 10 610 33 q 374 -12 455 -12 q 140 51 213 -12 q 68 257 68 115 l 68 501 q 141 708 68 644 q 374 772 214 772 q 603 708 531 772 q 675 501 675 643 l 675 335 l 282 335 l 282 269 m 391 1099 l 566 1099 l 353 847 l 257 847 l 391 1099 z "},"è":{"ha":733,"x_min":68,"x_max":675,"o":"m 282 490 l 282 469 l 465 469 l 465 500 q 443 589 465 561 q 374 618 420 618 q 304 588 326 618 q 282 490 282 557 m 282 269 q 303 172 282 201 q 374 143 325 143 q 442 170 419 143 q 465 252 465 197 l 465 256 l 675 256 l 675 75 q 532 10 610 33 q 374 -12 455 -12 q 140 51 213 -12 q 68 257 68 115 l 68 501 q 141 708 68 644 q 374 772 214 772 q 603 708 531 772 q 675 501 675 643 l 675 335 l 282 335 l 282 269 m 168 1099 l 343 1099 l 477 847 l 380 847 l 168 1099 z "},"ê":{"ha":733,"x_min":68,"x_max":675,"o":"m 282 490 l 282 469 l 465 469 l 465 500 q 443 589 465 561 q 374 618 420 618 q 304 588 326 618 q 282 490 282 557 m 282 269 q 303 172 282 201 q 374 143 325 143 q 442 170 419 143 q 465 252 465 197 l 465 256 l 675 256 l 675 75 q 532 10 610 33 q 374 -12 455 -12 q 140 51 213 -12 q 68 257 68 115 l 68 501 q 141 708 68 644 q 374 772 214 772 q 603 708 531 772 q 675 501 675 643 l 675 335 l 282 335 l 282 269 m 286 1099 l 448 1099 l 581 847 l 485 847 l 367 994 l 248 847 l 153 847 l 286 1099 z "},"ë":{"ha":733,"x_min":68,"x_max":675,"o":"m 282 490 l 282 469 l 465 469 l 465 500 q 443 589 465 561 q 374 618 420 618 q 304 588 326 618 q 282 490 282 557 m 282 269 q 303 172 282 201 q 374 143 325 143 q 442 170 419 143 q 465 252 465 197 l 465 256 l 675 256 l 675 75 q 532 10 610 33 q 374 -12 455 -12 q 140 51 213 -12 q 68 257 68 115 l 68 501 q 141 708 68 644 q 374 772 214 772 q 603 708 531 772 q 675 501 675 643 l 675 335 l 282 335 l 282 269 m 152 971 q 179 1036 152 1008 q 243 1064 206 1064 q 309 1037 282 1064 q 336 971 336 1009 q 309 906 336 933 q 243 879 281 879 q 179 907 207 879 q 152 971 152 935 m 397 972 q 424 1037 397 1010 q 489 1064 451 1064 q 555 1037 528 1064 q 582 972 582 1010 q 554 906 582 934 q 489 879 527 879 q 425 907 452 879 q 397 972 397 935 z "},"í":{"ha":429,"x_min":65,"x_max":414,"o":"m 325 257 q 335 179 325 197 q 371 154 345 161 l 371 0 l 65 0 l 65 154 q 102 181 92 158 q 113 269 113 205 l 113 510 q 103 579 113 562 q 65 607 93 597 l 65 758 l 325 758 l 325 257 m 239 1099 l 414 1099 l 201 847 l 105 847 l 239 1099 z "},"ì":{"ha":429,"x_min":16,"x_max":371,"o":"m 325 257 q 335 179 325 197 q 371 154 345 161 l 371 0 l 65 0 l 65 154 q 102 181 92 158 q 113 269 113 205 l 113 510 q 103 579 113 562 q 65 607 93 597 l 65 758 l 325 758 l 325 257 m 16 1099 l 191 1099 l 325 847 l 229 847 l 16 1099 z "},"î":{"ha":429,"x_min":1,"x_max":429,"o":"m 325 257 q 335 179 325 197 q 371 154 345 161 l 371 0 l 65 0 l 65 154 q 102 181 92 158 q 113 269 113 205 l 113 510 q 103 579 113 562 q 65 607 93 597 l 65 758 l 325 758 l 325 257 m 134 1099 l 296 1099 l 429 847 l 333 847 l 215 994 l 96 847 l 1 847 l 134 1099 z "},"ï":{"ha":429,"x_min":0,"x_max":430,"o":"m 325 257 q 335 179 325 197 q 371 154 345 161 l 371 0 l 65 0 l 65 154 q 102 181 92 158 q 113 269 113 205 l 113 510 q 103 579 113 562 q 65 607 93 597 l 65 758 l 325 758 l 325 257 m 0 971 q 27 1036 0 1008 q 92 1064 54 1064 q 157 1037 130 1064 q 184 971 184 1009 q 157 906 184 933 q 92 879 130 879 q 27 907 55 879 q 0 971 0 935 m 245 972 q 272 1037 245 1010 q 337 1064 299 1064 q 403 1037 376 1064 q 430 972 430 1010 q 402 906 430 934 q 337 879 375 879 q 273 907 300 879 q 245 972 245 935 z "},"ñ":{"ha":817,"x_min":62,"x_max":770,"o":"m 321 257 q 331 180 321 199 q 368 154 341 161 l 368 0 l 62 0 l 62 154 q 99 181 89 158 q 110 269 110 205 l 110 510 q 100 579 110 562 q 62 607 90 597 l 62 758 l 321 758 l 321 711 q 408 749 364 736 q 492 762 451 762 q 667 702 614 762 q 720 496 720 642 l 720 260 q 730 176 720 196 q 769 154 741 156 l 770 0 l 529 0 q 512 80 517 33 q 507 229 507 127 l 507 467 q 485 575 507 543 q 411 607 463 607 q 367 598 389 607 q 321 571 344 589 l 321 257 m 549 1065 l 623 1065 q 570 940 604 980 q 482 900 536 900 q 456 902 468 900 q 432 907 444 903 l 372 925 q 351 930 361 928 q 328 932 340 932 q 290 919 304 932 q 268 879 276 907 l 193 879 q 243 1000 210 962 q 332 1039 277 1039 q 359 1037 344 1039 q 390 1029 374 1034 l 453 1013 q 456 1012 454 1013 q 490 1007 477 1007 q 526 1021 512 1007 q 549 1065 540 1034 z "},"ó":{"ha":746,"x_min":68,"x_max":677,"o":"m 460 490 q 439 588 460 559 q 374 618 419 618 q 307 588 328 618 q 286 490 286 558 l 286 269 q 307 172 286 201 q 374 143 327 143 q 439 172 419 143 q 460 269 460 201 l 460 490 m 677 501 l 677 257 q 606 51 677 115 q 374 -12 534 -12 q 140 51 213 -12 q 68 257 68 115 l 68 501 q 141 708 68 644 q 374 772 214 772 q 606 708 534 772 q 677 501 677 644 m 397 1099 l 572 1099 l 360 847 l 264 847 l 397 1099 z "},"ò":{"ha":746,"x_min":68,"x_max":677,"o":"m 460 490 q 439 588 460 559 q 374 618 419 618 q 307 588 328 618 q 286 490 286 558 l 286 269 q 307 172 286 201 q 374 143 327 143 q 439 172 419 143 q 460 269 460 201 l 460 490 m 677 501 l 677 257 q 606 51 677 115 q 374 -12 534 -12 q 140 51 213 -12 q 68 257 68 115 l 68 501 q 141 708 68 644 q 374 772 214 772 q 606 708 534 772 q 677 501 677 644 m 175 1099 l 350 1099 l 484 847 l 387 847 l 175 1099 z "},"ô":{"ha":746,"x_min":68,"x_max":677,"o":"m 460 490 q 439 588 460 559 q 374 618 419 618 q 307 588 328 618 q 286 490 286 558 l 286 269 q 307 172 286 201 q 374 143 327 143 q 439 172 419 143 q 460 269 460 201 l 460 490 m 677 501 l 677 257 q 606 51 677 115 q 374 -12 534 -12 q 140 51 213 -12 q 68 257 68 115 l 68 501 q 141 708 68 644 q 374 772 214 772 q 606 708 534 772 q 677 501 677 644 m 293 1099 l 454 1099 l 587 847 l 492 847 l 374 994 l 254 847 l 160 847 l 293 1099 z "},"ö":{"ha":746,"x_min":68,"x_max":677,"o":"m 460 490 q 439 588 460 559 q 374 618 419 618 q 307 588 328 618 q 286 490 286 558 l 286 269 q 307 172 286 201 q 374 143 327 143 q 439 172 419 143 q 460 269 460 201 l 460 490 m 677 501 l 677 257 q 606 51 677 115 q 374 -12 534 -12 q 140 51 213 -12 q 68 257 68 115 l 68 501 q 141 708 68 644 q 374 772 214 772 q 606 708 534 772 q 677 501 677 644 m 159 971 q 186 1036 159 1008 q 250 1064 213 1064 q 316 1037 289 1064 q 343 971 343 1009 q 316 906 343 933 q 250 879 288 879 q 186 907 214 879 q 159 971 159 935 m 404 972 q 431 1037 404 1010 q 496 1064 458 1064 q 562 1037 534 1064 q 589 972 589 1010 q 561 906 589 934 q 496 879 534 879 q 431 907 458 879 q 404 972 404 935 z "},"õ":{"ha":746,"x_min":68,"x_max":677,"o":"m 460 490 q 439 588 460 559 q 374 618 419 618 q 307 588 328 618 q 286 490 286 558 l 286 269 q 307 172 286 201 q 374 143 327 143 q 439 172 419 143 q 460 269 460 201 l 460 490 m 677 501 l 677 257 q 606 51 677 115 q 374 -12 534 -12 q 140 51 213 -12 q 68 257 68 115 l 68 501 q 141 708 68 644 q 374 772 214 772 q 606 708 534 772 q 677 501 677 644 m 514 1065 l 589 1065 q 535 940 570 980 q 448 900 501 900 q 421 902 433 900 q 397 907 409 903 l 338 925 q 316 930 327 928 q 293 932 305 932 q 256 919 270 932 q 233 879 241 907 l 159 879 q 209 1000 175 962 q 297 1039 243 1039 q 324 1037 309 1039 q 355 1029 339 1034 l 418 1013 q 421 1012 419 1013 q 456 1007 443 1007 q 491 1021 477 1007 q 514 1065 505 1034 z "},"ú":{"ha":817,"x_min":61,"x_max":753,"o":"m 705 758 l 705 250 q 715 178 705 195 q 753 151 726 161 l 753 0 l 494 0 l 494 49 q 407 9 450 22 q 323 -4 363 -4 q 148 56 201 -4 q 96 264 96 117 l 96 494 q 88 576 96 553 q 61 604 80 599 l 61 758 l 286 758 q 303 680 298 726 q 309 530 309 633 l 309 292 q 331 184 309 217 q 401 151 353 151 q 447 161 424 151 q 494 189 470 170 l 494 501 q 485 578 494 559 q 447 604 475 597 l 447 758 l 705 758 m 432 1099 l 607 1099 l 395 847 l 298 847 l 432 1099 z "},"ù":{"ha":817,"x_min":61,"x_max":753,"o":"m 705 758 l 705 250 q 715 178 705 195 q 753 151 726 161 l 753 0 l 494 0 l 494 49 q 407 9 450 22 q 323 -4 363 -4 q 148 56 201 -4 q 96 264 96 117 l 96 494 q 88 576 96 553 q 61 604 80 599 l 61 758 l 286 758 q 303 680 298 726 q 309 530 309 633 l 309 292 q 331 184 309 217 q 401 151 353 151 q 447 161 424 151 q 494 189 470 170 l 494 501 q 485 578 494 559 q 447 604 475 597 l 447 758 l 705 758 m 210 1099 l 385 1099 l 518 847 l 422 847 l 210 1099 z "},"û":{"ha":817,"x_min":61,"x_max":753,"o":"m 705 758 l 705 250 q 715 178 705 195 q 753 151 726 161 l 753 0 l 494 0 l 494 49 q 407 9 450 22 q 323 -4 363 -4 q 148 56 201 -4 q 96 264 96 117 l 96 494 q 88 576 96 553 q 61 604 80 599 l 61 758 l 286 758 q 303 680 298 726 q 309 530 309 633 l 309 292 q 331 184 309 217 q 401 151 353 151 q 447 161 424 151 q 494 189 470 170 l 494 501 q 485 578 494 559 q 447 604 475 597 l 447 758 l 705 758 m 328 1099 l 489 1099 l 622 847 l 526 847 l 408 994 l 289 847 l 195 847 l 328 1099 z "},"ü":{"ha":817,"x_min":61,"x_max":753,"o":"m 705 758 l 705 250 q 715 178 705 195 q 753 151 726 161 l 753 0 l 494 0 l 494 49 q 407 9 450 22 q 323 -4 363 -4 q 148 56 201 -4 q 96 264 96 117 l 96 494 q 88 576 96 553 q 61 604 80 599 l 61 758 l 286 758 q 303 680 298 726 q 309 530 309 633 l 309 292 q 331 184 309 217 q 401 151 353 151 q 447 161 424 151 q 494 189 470 170 l 494 501 q 485 578 494 559 q 447 604 475 597 l 447 758 l 705 758 m 193 971 q 220 1036 193 1008 q 285 1064 248 1064 q 351 1037 323 1064 q 378 971 378 1009 q 350 906 378 933 q 285 879 323 879 q 221 907 248 879 q 193 971 193 935 m 439 972 q 466 1037 439 1010 q 530 1064 492 1064 q 596 1037 569 1064 q 623 972 623 1010 q 596 906 623 934 q 530 879 568 879 q 466 907 493 879 q 439 972 439 935 z "},"†":{"ha":694,"x_min":39,"x_max":656,"o":"m 250 0 l 250 623 l 39 623 l 39 777 l 250 777 l 250 1032 l 443 1032 l 443 777 l 656 777 l 656 623 l 443 623 l 443 0 l 250 0 z "},"°":{"ha":457,"x_min":24,"x_max":435,"o":"m 229 905 q 145 871 180 905 q 110 787 110 836 q 144 703 110 737 q 229 668 179 668 q 313 703 278 668 q 347 787 347 739 q 313 871 347 836 q 229 905 278 905 m 229 993 q 375 932 315 993 q 435 786 435 871 q 374 641 435 701 q 228 581 314 581 q 83 640 142 581 q 24 786 24 700 q 84 932 24 872 q 229 993 144 993 z "},"¢":{"ha":842,"x_min":136,"x_max":730,"o":"m 533 595 l 533 619 q 511 708 533 680 q 441 736 489 736 q 372 706 394 736 q 350 608 350 675 l 350 389 q 372 291 350 321 q 441 261 393 261 q 512 290 491 261 q 533 387 533 318 l 533 432 l 730 432 l 730 187 q 640 140 688 159 q 536 114 591 122 l 536 -26 l 339 -26 l 339 114 q 183 196 231 136 q 136 376 136 257 l 136 619 q 183 799 136 739 q 339 880 231 860 l 339 997 l 536 997 l 536 880 q 634 854 587 871 q 730 808 682 836 l 730 595 l 533 595 z "},"£":{"ha":842,"x_min":56,"x_max":778,"o":"m 57 0 l 57 174 q 99 199 87 180 q 110 281 110 218 l 110 441 l 56 441 l 56 618 l 110 618 l 110 722 q 200 968 110 884 q 463 1053 290 1053 q 626 1028 547 1053 q 778 954 705 1004 l 778 705 l 568 705 l 568 722 q 539 813 568 783 q 453 843 510 843 q 366 812 393 843 q 338 717 338 782 l 338 618 l 628 618 l 628 441 l 338 441 l 338 196 l 439 196 q 532 217 508 196 q 557 296 557 239 l 778 296 l 778 0 l 57 0 z "},"§":{"ha":694,"x_min":29,"x_max":669,"o":"m 559 258 q 621 186 601 231 q 642 78 642 141 q 564 -91 642 -27 q 355 -155 486 -155 q 202 -134 276 -155 q 68 -71 128 -112 l 68 86 l 253 86 l 253 69 q 276 -2 253 22 q 345 -26 298 -26 q 416 -1 389 -26 q 444 65 444 25 q 293 201 444 147 q 208 232 239 220 q 72 323 115 270 q 29 457 29 377 q 55 568 29 524 q 138 642 81 612 q 77 713 98 669 q 57 814 57 757 q 134 989 57 926 q 347 1053 210 1053 q 488 1031 418 1053 q 616 970 559 1009 l 616 812 l 432 812 l 432 825 q 411 898 432 873 q 350 924 390 924 q 280 898 305 924 q 254 828 254 873 q 407 698 254 751 q 490 667 460 679 q 627 575 584 629 q 669 441 669 522 q 642 331 669 376 q 559 258 615 286 m 450 325 q 491 368 479 347 q 504 416 504 389 q 351 534 504 477 q 235 579 277 561 q 195 541 209 564 q 182 489 182 517 q 342 365 182 422 q 450 325 410 341 z "},"•":{"ha":819,"x_min":208,"x_max":610,"o":"m 208 517 q 267 659 208 600 q 410 717 326 717 q 551 658 492 717 q 610 517 610 600 q 550 375 610 434 q 408 315 491 315 q 267 374 325 315 q 208 517 208 433 z "},"¶":{"ha":694,"x_min":28,"x_max":667,"o":"m 667 1003 l 667 928 l 590 928 l 590 0 l 488 0 l 488 928 l 380 928 l 380 0 l 277 0 l 277 532 q 96 600 163 536 q 28 766 28 665 q 100 938 28 873 q 293 1003 173 1003 l 667 1003 z "},"ß":{"ha":754,"x_min":43,"x_max":694,"o":"m 43 0 l 43 154 q 82 189 71 167 q 93 257 93 211 l 93 720 q 102 857 93 812 q 132 935 111 902 q 234 1014 165 987 q 401 1042 302 1042 q 620 981 551 1042 q 689 787 689 920 q 656 645 689 694 q 547 576 623 597 q 660 505 626 555 q 694 363 694 456 l 694 241 q 643 55 694 111 q 469 0 591 0 l 379 0 l 379 154 l 397 154 q 457 176 441 154 q 473 262 473 197 l 473 380 q 452 466 473 440 q 380 494 430 492 l 379 626 q 455 658 433 630 q 476 761 476 686 q 455 857 476 827 q 389 886 435 886 q 325 860 344 886 q 306 762 306 833 l 306 0 l 43 0 z "},"®":{"ha":1157,"x_min":75,"x_max":1083,"o":"m 505 701 l 505 539 l 572 539 q 660 558 632 539 q 688 618 688 577 q 658 681 688 661 q 566 701 628 701 l 505 701 m 370 787 l 589 787 q 768 747 708 787 q 828 627 828 707 q 795 532 828 571 q 705 478 763 492 l 831 228 l 679 228 l 572 457 l 505 457 l 505 228 l 370 228 l 370 787 m 579 920 q 419 889 493 920 q 286 800 345 859 q 191 660 224 739 q 158 498 158 582 q 189 339 158 414 q 279 204 220 263 q 417 110 340 142 q 578 77 494 77 q 736 109 659 77 q 876 200 813 140 q 968 333 935 257 q 1000 490 1000 409 q 970 656 1000 581 q 880 793 940 732 q 743 888 819 856 q 579 920 667 920 m 578 1003 q 775 964 682 1003 q 940 851 867 925 q 1046 690 1010 781 q 1083 497 1083 599 q 1045 302 1083 394 q 935 140 1007 210 q 769 31 862 69 q 578 -7 677 -7 q 385 33 477 -7 q 220 146 292 72 q 112 308 149 217 q 75 497 75 398 q 94 632 75 566 q 149 760 112 697 q 330 939 217 875 q 578 1003 442 1003 z "},"©":{"ha":1157,"x_min":75,"x_max":1083,"o":"m 822 608 l 694 608 q 659 682 689 656 q 578 708 628 708 q 481 653 516 708 q 446 498 446 597 q 481 347 446 399 q 583 294 516 294 q 663 323 633 294 q 699 404 692 351 l 829 404 q 755 253 824 310 q 579 196 687 196 q 380 276 453 196 q 307 494 307 356 q 381 717 307 634 q 581 800 456 800 q 750 747 684 800 q 822 608 817 694 m 579 920 q 417 888 492 920 q 282 798 341 857 q 190 660 222 736 q 158 498 158 583 q 190 338 158 414 q 282 201 222 262 q 418 110 342 142 q 579 78 495 78 q 740 110 663 78 q 879 203 817 142 q 969 336 939 261 q 1000 498 1000 412 q 969 660 1000 584 q 878 796 937 736 q 741 888 817 857 q 579 920 665 920 m 578 1003 q 773 965 681 1003 q 937 854 865 927 q 1046 691 1008 783 q 1083 497 1083 600 q 1046 304 1083 394 q 937 144 1009 215 q 769 32 862 71 q 578 -7 676 -7 q 388 32 478 -7 q 224 143 297 70 q 113 306 151 215 q 75 497 75 397 q 113 690 75 598 q 224 856 151 782 q 385 965 295 928 q 578 1003 475 1003 z "},"™":{"ha":1157,"x_min":140,"x_max":981,"o":"m 545 991 l 677 991 l 764 766 l 847 991 l 981 991 l 981 621 l 889 621 l 889 899 l 785 621 l 743 621 l 636 899 l 636 621 l 545 621 l 545 991 m 140 991 l 469 991 l 469 916 l 355 916 l 355 621 l 254 621 l 254 916 l 140 916 l 140 991 z "},"´":{"ha":694,"x_min":237,"x_max":546,"o":"m 371 1099 l 546 1099 l 334 847 l 237 847 l 371 1099 z "},"¨":{"ha":694,"x_min":132,"x_max":562,"o":"m 132 971 q 159 1036 132 1008 q 224 1064 186 1064 q 290 1037 262 1064 q 317 971 317 1009 q 289 906 317 933 q 224 879 262 879 q 160 907 187 879 q 132 971 132 935 m 378 972 q 405 1037 378 1010 q 469 1064 431 1064 q 535 1037 508 1064 q 562 972 562 1010 q 535 906 562 934 q 469 879 507 879 q 405 907 432 879 q 378 972 378 935 z "},"≠":{"ha":1157,"x_min":172,"x_max":985,"o":"m 812 836 l 913 755 l 808 625 l 985 625 l 985 496 l 721 496 l 591 334 l 985 334 l 985 203 l 505 203 l 339 -7 l 239 74 l 343 203 l 172 203 l 172 334 l 428 334 l 557 496 l 172 496 l 172 625 l 644 625 l 812 836 z "},"Æ":{"ha":1260,"x_min":17,"x_max":1203,"o":"m 372 439 l 539 439 l 539 903 l 372 439 m 489 0 l 489 174 q 528 198 517 179 q 539 261 539 217 l 539 286 l 318 286 l 301 249 q 294 225 296 235 q 292 205 292 216 q 301 184 292 193 q 325 174 310 175 l 325 0 l 17 0 l 17 174 q 57 202 39 180 q 92 267 75 224 l 399 1032 l 1203 1032 l 1203 717 l 982 717 l 982 728 q 955 811 982 787 q 860 835 928 835 l 774 835 l 774 619 l 1053 619 l 1053 446 l 774 446 l 774 197 l 863 197 q 958 219 934 197 q 982 309 982 241 l 982 346 l 1203 346 l 1203 0 l 489 0 z "},"Ø":{"ha":840,"x_min":65,"x_max":775,"o":"m 74 685 q 86 863 74 810 q 129 953 99 915 q 240 1028 170 1004 q 421 1053 311 1053 q 504 1049 467 1053 q 570 1038 541 1045 l 607 1120 l 775 1035 l 726 929 q 757 845 748 895 q 766 685 766 795 l 766 347 q 757 189 766 239 q 726 102 748 138 q 615 8 688 38 q 421 -21 542 -21 q 336 -17 374 -21 q 268 -4 299 -13 l 231 -87 l 65 -5 l 117 98 q 84 185 94 133 q 74 347 74 237 l 74 685 m 311 693 l 311 339 q 337 222 311 258 q 421 187 363 187 q 504 222 478 187 q 529 339 529 257 l 529 693 q 504 809 529 774 q 421 844 478 844 q 337 809 363 844 q 311 693 311 774 z "},"∞":{"ha":1157,"x_min":139,"x_max":1019,"o":"m 639 380 q 711 304 669 330 q 806 278 753 278 q 909 316 869 278 q 949 414 949 353 q 912 511 949 473 q 821 549 876 549 q 727 510 770 549 q 639 380 684 471 m 519 447 q 448 523 490 498 q 353 549 406 549 q 249 511 289 549 q 210 412 210 473 q 246 316 210 355 q 338 278 283 278 q 431 317 389 278 q 519 447 474 357 m 582 310 q 483 178 536 220 q 364 135 429 135 q 204 215 269 135 q 139 414 139 294 q 197 615 139 538 q 349 692 255 692 q 464 651 411 692 q 575 517 517 610 q 675 650 621 606 q 794 693 730 693 q 954 613 888 693 q 1019 414 1019 532 q 961 213 1019 290 q 810 136 903 136 q 694 176 747 136 q 582 310 642 216 z "},"±":{"ha":1157,"x_min":172,"x_max":985,"o":"m 172 134 l 985 134 l 985 -1 l 172 -1 l 172 134 m 510 829 l 647 829 l 647 608 l 985 608 l 985 473 l 647 473 l 647 253 l 510 253 l 510 473 l 172 473 l 172 608 l 510 608 l 510 829 z "},"≤":{"ha":1157,"x_min":175,"x_max":983,"o":"m 175 132 l 983 132 l 983 -1 l 175 -1 l 175 132 m 982 842 l 982 700 l 416 521 l 982 343 l 982 201 l 175 463 l 175 581 l 982 842 z "},"≥":{"ha":1157,"x_min":175,"x_max":983,"o":"m 175 132 l 983 132 l 983 -1 l 175 -1 l 175 132 m 176 842 l 982 581 l 982 463 l 176 201 l 176 343 l 741 521 l 176 700 l 176 842 z "},"¥":{"ha":842,"x_min":25,"x_max":799,"o":"m 248 0 l 248 174 q 288 201 276 180 q 300 271 300 223 l 300 370 l 25 370 l 25 458 l 268 458 l 212 575 l 25 575 l 25 664 l 165 664 l 102 804 q 75 846 88 831 q 46 865 61 861 l 46 1032 l 347 1032 l 347 892 q 352 844 347 867 q 367 796 357 821 l 437 623 l 505 790 q 521 839 516 816 q 526 890 526 862 l 526 905 l 526 1032 l 791 1032 l 791 865 q 765 847 777 861 q 737 806 752 833 l 665 664 l 799 664 l 799 575 l 621 575 l 564 458 l 799 458 l 799 370 l 538 370 l 538 273 q 549 197 538 216 q 590 174 560 178 l 590 0 l 248 0 z "},"µ":{"ha":847,"x_min":-43,"x_max":803,"o":"m 139 741 l 335 741 l 283 446 q 268 343 273 391 q 262 264 262 294 q 291 170 262 201 q 378 139 319 139 q 483 195 446 139 q 546 392 521 250 l 607 741 l 803 741 l 672 0 l 490 0 l 503 79 q 439 2 474 26 q 357 -22 404 -22 q 276 -2 311 -22 q 212 60 241 18 l 151 -297 l -43 -297 l 139 741 z "},"∂":{"ha":742,"x_min":52,"x_max":693,"o":"m 517 449 q 536 577 530 516 q 543 682 543 637 q 526 789 543 750 q 478 828 508 828 q 379 779 448 828 q 271 729 310 729 q 222 749 242 729 q 203 799 203 770 q 261 879 203 842 q 404 916 320 916 q 614 806 534 916 q 693 513 693 696 q 587 133 693 283 q 318 -17 481 -17 q 127 61 202 -17 q 52 258 52 138 q 130 482 52 393 q 325 571 209 571 q 440 542 394 571 q 517 449 486 512 m 475 351 q 449 472 475 430 q 374 514 422 514 q 260 423 305 514 q 215 192 215 332 q 241 72 215 113 q 317 31 267 31 q 430 121 385 31 q 475 351 475 212 z "},"∑":{"ha":997,"x_min":28,"x_max":968,"o":"m 45 999 l 932 999 l 932 819 l 336 819 l 757 382 l 335 -86 l 968 -86 l 968 -267 l 28 -267 l 28 -150 l 501 374 l 45 842 l 45 999 z "},"∏":{"ha":1093,"x_min":102,"x_max":989,"o":"m 102 999 l 989 999 l 989 -267 l 755 -267 l 755 803 l 335 803 l 335 -267 l 102 -267 l 102 999 z "},"π":{"ha":895,"x_min":-24,"x_max":918,"o":"m 918 741 l 892 589 l 772 589 l 668 0 l 473 0 l 576 589 l 415 589 l 313 0 l 118 0 l 221 589 l 204 589 q 147 568 167 589 q 121 500 127 547 l -24 500 q 60 688 -4 635 q 271 741 123 741 l 918 741 z "},"∫":{"ha":804,"x_min":33,"x_max":771,"o":"m 232 -171 q 314 262 301 -171 q 318 406 316 355 q 401 902 329 750 q 624 1054 474 1054 q 731 1021 690 1054 q 771 933 771 987 q 745 868 771 892 q 677 843 720 843 q 625 859 646 843 q 597 905 604 876 q 593 942 594 919 q 572 974 591 973 q 492 545 505 974 q 488 424 489 466 q 467 122 480 223 q 427 -47 453 22 q 326 -200 389 -148 q 180 -253 263 -253 q 74 -220 115 -253 q 33 -134 33 -186 q 60 -66 33 -92 q 131 -41 86 -41 q 189 -63 165 -41 q 212 -111 212 -84 q 216 -161 212 -151 q 232 -171 220 -171 z "},"ª":{"ha":576,"x_min":36,"x_max":541,"o":"m 345 751 q 234 700 261 721 q 207 652 207 680 q 219 620 207 632 q 253 608 232 608 q 297 622 273 608 q 345 660 321 635 l 345 751 m 350 557 q 271 510 314 526 q 183 493 228 493 q 76 532 116 493 q 36 639 36 572 q 93 753 36 709 q 345 852 149 796 l 345 882 q 331 928 345 913 q 286 942 317 942 q 242 926 257 942 q 228 880 228 911 l 228 864 l 69 864 l 69 986 q 182 1027 125 1013 q 294 1042 239 1042 q 454 1000 406 1042 q 503 863 503 958 l 503 686 q 511 628 503 642 q 540 610 519 613 l 541 501 l 350 501 l 350 557 z "},"º":{"ha":559,"x_min":52,"x_max":509,"o":"m 345 844 q 329 913 345 892 q 281 935 314 935 q 231 914 246 935 q 215 844 215 893 l 215 690 q 230 622 215 642 q 281 602 245 602 q 330 622 315 602 q 345 690 345 642 l 345 844 m 509 852 l 509 682 q 455 537 509 582 q 281 493 401 493 q 105 538 159 493 q 52 682 52 583 l 52 852 q 106 997 52 952 q 281 1042 160 1042 q 454 997 400 1042 q 509 852 509 952 z "},"Ω":{"ha":1068,"x_min":37,"x_max":1029,"o":"m 832 174 l 1029 174 l 1029 0 l 616 0 l 616 197 q 747 345 702 256 q 791 546 791 434 q 723 763 791 684 q 533 842 654 842 q 344 763 413 842 q 275 546 275 684 q 320 345 275 435 q 450 197 365 255 l 450 0 l 37 0 l 37 174 l 235 174 q 108 350 149 256 q 66 555 66 444 q 194 896 66 768 q 533 1023 321 1023 q 873 896 745 1023 q 1000 555 1000 768 q 959 350 1000 444 q 832 174 918 256 z "},"æ":{"ha":1121,"x_min":49,"x_max":1063,"o":"m 458 357 q 310 282 345 311 q 275 214 275 254 q 292 169 275 186 q 336 153 308 153 q 395 171 363 153 q 458 227 426 190 l 458 357 m 668 490 l 668 469 l 852 469 l 852 500 q 830 589 852 560 q 760 618 807 618 q 690 588 712 618 q 668 490 668 557 m 668 269 q 689 172 668 201 q 760 143 711 143 q 829 170 806 143 q 852 252 852 197 l 852 256 l 1063 256 l 1063 75 q 919 10 997 33 q 760 -12 842 -12 q 600 16 666 -12 q 497 100 534 44 q 371 16 434 44 q 244 -12 307 -12 q 101 44 154 -12 q 49 197 49 100 q 124 359 49 297 q 458 501 199 420 l 458 545 q 440 609 458 589 q 382 629 422 629 q 323 608 342 629 q 304 542 304 586 l 304 518 l 92 518 l 92 693 q 241 752 168 732 q 386 772 315 772 q 486 760 441 772 q 570 722 531 747 q 658 760 610 747 q 760 772 707 772 q 990 707 918 772 q 1063 501 1063 642 l 1063 335 l 668 335 l 668 269 z "},"ø":{"ha":746,"x_min":68,"x_max":677,"o":"m 85 5 l 118 74 q 80 144 93 98 q 68 257 68 191 l 68 501 q 141 708 68 644 q 374 772 214 772 q 431 770 404 772 q 484 761 458 767 l 515 823 l 663 755 l 627 686 q 665 617 652 662 q 677 501 677 572 l 677 257 q 606 51 677 115 q 374 -12 534 -12 q 313 -9 341 -12 q 260 -1 286 -7 l 228 -68 l 85 5 m 282 490 l 282 269 q 303 172 282 201 q 374 143 325 143 q 444 172 422 143 q 465 269 465 200 l 465 490 q 444 588 465 559 q 374 618 422 618 q 304 588 326 618 q 282 490 282 557 z "},"¿":{"ha":772,"x_min":56,"x_max":730,"o":"m 608 936 q 573 854 608 889 q 490 819 538 819 q 408 853 441 819 q 374 936 374 887 q 408 1020 374 985 q 490 1054 442 1054 q 572 1018 536 1054 q 608 936 608 983 m 604 715 l 604 644 q 585 541 604 577 q 509 461 566 505 q 417 399 476 437 q 293 261 293 320 q 321 195 293 220 q 397 171 349 171 q 479 201 452 171 q 507 292 507 232 l 507 321 l 730 321 l 730 83 q 583 12 665 36 q 404 -12 500 -12 q 143 59 230 -12 q 56 272 56 130 q 88 423 56 365 q 241 558 120 481 q 271 576 252 565 q 375 704 375 642 l 375 715 l 604 715 z "},"¡":{"ha":421,"x_min":81,"x_max":340,"o":"m 326 936 q 292 853 326 889 q 210 818 257 818 q 127 852 161 818 q 93 936 93 887 q 127 1018 93 984 q 210 1053 162 1053 q 291 1018 256 1053 q 326 936 326 983 m 268 714 l 335 179 q 339 142 337 159 q 340 115 340 125 q 306 22 340 56 q 210 -12 271 -12 q 115 22 149 -12 q 81 115 81 56 q 82 144 81 127 q 86 179 83 160 l 151 714 l 268 714 z "},"¬":{"ha":1157,"x_min":172,"x_max":985,"o":"m 172 586 l 985 586 l 985 245 l 850 245 l 850 453 l 172 453 l 172 586 z "},"√":{"ha":913,"x_min":49,"x_max":914,"o":"m 774 1149 l 914 1149 l 914 1061 l 844 1061 l 443 -28 l 375 -28 l 164 554 l 69 519 l 49 596 l 273 675 l 433 227 l 774 1149 z "},"ƒ":{"ha":842,"x_min":159,"x_max":681,"o":"m 338 794 q 404 993 353 935 q 555 1051 454 1051 q 616 1046 584 1051 q 681 1032 648 1042 l 680 882 q 673 883 677 882 q 660 884 668 884 q 601 860 619 884 q 572 765 582 836 l 557 654 l 654 654 l 654 488 l 538 488 l 500 65 q 437 -130 488 -70 q 282 -191 385 -191 q 219 -186 251 -191 q 159 -172 188 -181 l 159 -22 q 168 -23 163 -23 q 180 -24 172 -24 q 241 3 221 -24 q 267 94 260 30 l 306 488 l 227 488 l 227 654 l 322 654 l 338 794 z "},"≈":{"ha":1157,"x_min":121,"x_max":1038,"o":"m 1038 404 l 1038 256 q 903 184 966 207 q 781 161 841 161 q 586 207 716 161 q 382 252 456 252 q 263 227 325 252 q 121 144 202 201 l 121 293 q 261 366 196 342 q 383 390 326 390 q 597 346 467 390 q 783 301 727 301 q 901 325 842 301 q 1038 404 961 349 m 1038 684 l 1038 534 q 904 464 966 486 q 782 441 843 441 q 588 486 718 441 q 382 530 458 530 q 267 507 326 530 q 121 424 207 483 l 121 572 q 259 645 193 621 q 383 669 325 669 q 598 625 468 669 q 783 581 728 581 q 899 604 840 581 q 1038 684 958 628 z "},"∆":{"ha":968,"x_min":0,"x_max":968,"o":"m 484 753 l 262 174 l 705 174 l 484 753 m 382 999 l 586 999 l 968 0 l 0 0 l 382 999 z "},"«":{"ha":656,"x_min":78,"x_max":590,"o":"m 443 138 l 340 392 l 443 646 l 590 646 l 492 392 l 590 138 l 443 138 m 179 138 l 78 392 l 179 646 l 326 646 l 229 392 l 326 138 l 179 138 z "},"»":{"ha":656,"x_min":66,"x_max":579,"o":"m 212 138 l 66 138 l 164 392 l 66 646 l 212 646 l 315 392 l 212 138 m 476 138 l 329 138 l 428 392 l 329 646 l 476 646 l 579 392 l 476 138 z "},"…":{"ha":1389,"x_min":121,"x_max":1268,"o":"m 121 97 q 154 175 121 142 q 232 208 187 208 q 310 176 278 208 q 342 97 342 143 q 310 20 342 52 q 232 -12 277 -12 q 154 21 188 -12 q 121 97 121 54 m 583 97 q 616 175 583 142 q 694 208 650 208 q 772 176 741 208 q 804 97 804 143 q 772 20 804 52 q 694 -12 740 -12 q 617 21 650 -12 q 583 97 583 54 m 1047 97 q 1080 175 1047 142 q 1158 208 1114 208 q 1236 176 1204 208 q 1268 97 1268 143 q 1236 20 1268 52 q 1158 -12 1204 -12 q 1081 21 1114 -12 q 1047 97 1047 54 z "}," ":{"ha":842,"x_min":0,"x_max":0,"o":""},"À":{"ha":829,"x_min":32,"x_max":815,"o":"m 32 0 l 32 174 q 70 202 56 181 q 94 282 83 222 l 240 1032 l 595 1032 l 755 265 q 779 200 766 218 q 815 174 791 181 l 815 0 l 464 0 l 464 174 q 502 189 488 176 q 515 222 515 201 q 515 236 515 228 q 513 252 514 243 l 504 296 l 304 296 l 296 256 q 294 238 294 245 q 293 225 293 231 q 306 187 293 199 q 349 174 319 175 l 349 0 l 32 0 m 330 443 l 471 443 l 400 838 l 330 443 m 216 1381 l 391 1381 l 525 1129 l 429 1129 l 216 1381 z "},"Ã":{"ha":829,"x_min":32,"x_max":815,"o":"m 32 0 l 32 174 q 70 202 56 181 q 94 282 83 222 l 240 1032 l 595 1032 l 755 265 q 779 200 766 218 q 815 174 791 181 l 815 0 l 464 0 l 464 174 q 502 189 488 176 q 515 222 515 201 q 515 236 515 228 q 513 252 514 243 l 504 296 l 304 296 l 296 256 q 294 238 294 245 q 293 225 293 231 q 306 187 293 199 q 349 174 319 175 l 349 0 l 32 0 m 330 443 l 471 443 l 400 838 l 330 443 m 555 1348 l 630 1348 q 577 1222 611 1262 q 489 1182 543 1182 q 463 1184 475 1182 q 439 1189 450 1185 l 379 1207 q 357 1212 368 1211 q 334 1214 347 1214 q 297 1201 311 1214 q 275 1161 283 1189 l 200 1161 q 250 1282 216 1244 q 338 1321 284 1321 q 366 1319 351 1321 q 397 1312 380 1316 l 460 1295 q 463 1294 460 1295 q 497 1289 484 1289 q 533 1303 519 1289 q 555 1348 547 1316 z "},"Õ":{"ha":840,"x_min":74,"x_max":766,"o":"m 311 693 l 311 339 q 337 222 311 258 q 421 187 363 187 q 504 222 478 187 q 529 339 529 257 l 529 693 q 504 809 529 774 q 421 844 478 844 q 337 809 363 844 q 311 693 311 774 m 74 685 q 86 863 74 810 q 129 953 99 915 q 240 1028 170 1004 q 421 1053 311 1053 q 600 1028 530 1053 q 711 953 669 1004 q 754 861 741 915 q 766 685 766 807 l 766 347 q 754 171 766 224 q 711 79 741 117 q 600 3 669 28 q 421 -21 530 -21 q 240 3 311 -21 q 129 79 170 28 q 86 169 99 117 q 74 347 74 221 l 74 685 m 562 1348 l 636 1348 q 583 1222 617 1262 q 495 1182 549 1182 q 469 1184 481 1182 q 445 1189 456 1185 l 385 1207 q 363 1212 374 1211 q 340 1214 353 1214 q 303 1201 317 1214 q 281 1161 289 1189 l 206 1161 q 256 1282 222 1244 q 345 1321 290 1321 q 372 1319 357 1321 q 403 1312 387 1316 l 466 1295 q 469 1294 467 1295 q 503 1289 490 1289 q 539 1303 525 1289 q 562 1348 553 1316 z "},"Œ":{"ha":1257,"x_min":74,"x_max":1197,"o":"m 311 693 l 311 339 q 337 222 311 258 q 421 187 363 187 q 504 222 478 187 q 529 339 529 257 l 529 693 q 504 809 529 774 q 421 844 478 844 q 337 809 363 844 q 311 693 311 774 m 74 685 q 83 846 74 797 q 114 930 92 895 q 226 1023 152 994 q 421 1053 300 1053 q 499 1047 458 1053 q 583 1032 540 1042 l 1197 1032 l 1197 717 l 975 717 l 975 726 q 948 811 975 787 q 850 835 920 835 l 762 835 l 762 619 l 1046 619 l 1046 446 l 762 446 l 762 197 l 848 197 q 950 219 924 197 q 975 309 975 241 l 975 346 l 1197 346 l 1197 0 l 585 0 q 500 -16 541 -10 q 421 -21 459 -21 q 240 3 311 -21 q 129 79 170 28 q 86 172 99 118 q 74 347 74 226 l 74 685 z "},"œ":{"ha":1131,"x_min":68,"x_max":1072,"o":"m 679 490 l 679 469 l 863 469 l 863 500 q 840 589 863 561 q 771 618 818 618 q 701 588 723 618 q 679 490 679 557 m 679 269 q 701 172 679 201 q 771 143 722 143 q 840 170 817 143 q 863 252 863 197 l 863 256 l 1072 256 l 1072 75 q 929 10 1006 33 q 771 -12 852 -12 q 658 1 707 -12 q 572 43 608 15 q 476 2 526 16 q 374 -12 425 -12 q 140 51 213 -12 q 68 257 68 115 l 68 501 q 141 708 68 644 q 374 772 214 772 q 480 759 432 772 q 571 718 528 746 q 665 759 615 745 q 771 772 714 772 q 1000 708 928 772 q 1072 501 1072 643 l 1072 335 l 679 335 l 679 269 m 282 490 l 282 269 q 303 172 282 201 q 374 143 325 143 q 444 172 422 143 q 465 269 465 200 l 465 490 q 444 588 465 559 q 374 618 422 618 q 304 588 326 618 q 282 490 282 557 z "},"–":{"ha":694,"x_min":0,"x_max":694,"o":"m 0 322 l 0 460 l 694 460 l 694 322 l 0 322 z "},"—":{"ha":1389,"x_min":0,"x_max":1389,"o":"m 0 322 l 0 460 l 1389 460 l 1389 322 l 0 322 z "},"“":{"ha":633,"x_min":90,"x_max":549,"o":"m 256 1010 q 215 969 231 991 q 193 924 199 947 q 265 899 238 924 q 292 832 292 873 q 263 765 292 792 q 193 737 235 737 q 119 768 147 737 q 90 850 90 800 q 124 958 90 905 q 218 1053 157 1011 l 256 1010 m 513 1010 q 472 969 487 989 q 452 924 458 948 q 522 899 496 924 q 549 832 549 873 q 520 765 549 792 q 450 737 492 737 q 376 768 404 737 q 347 850 347 800 q 381 958 347 905 q 475 1053 414 1011 l 513 1010 z "},"”":{"ha":633,"x_min":89,"x_max":549,"o":"m 383 781 q 423 820 408 799 q 444 867 438 842 q 374 892 400 867 q 347 958 347 917 q 375 1026 347 999 q 446 1053 404 1053 q 520 1022 492 1053 q 549 940 549 991 q 515 832 549 886 q 421 737 481 779 l 383 781 m 126 781 q 166 820 151 799 q 187 867 181 842 q 116 892 142 867 q 89 958 89 917 q 117 1026 89 999 q 187 1053 146 1053 q 262 1022 233 1053 q 290 940 290 991 q 257 832 290 886 q 163 737 223 779 l 126 781 z "},"‘":{"ha":376,"x_min":90,"x_max":292,"o":"m 256 1010 q 216 970 231 991 q 195 924 201 949 q 266 899 239 924 q 292 832 292 873 q 263 765 292 792 q 193 737 235 737 q 119 768 147 737 q 90 850 90 800 q 124 958 90 905 q 218 1053 157 1011 l 256 1010 z "},"’":{"ha":376,"x_min":90,"x_max":292,"o":"m 126 781 q 166 820 151 799 q 187 867 181 842 q 117 892 143 867 q 90 958 90 917 q 119 1026 90 999 q 189 1053 147 1053 q 263 1022 235 1053 q 292 940 292 991 q 258 832 292 886 q 164 737 224 779 l 126 781 z "},"÷":{"ha":1157,"x_min":172,"x_max":985,"o":"m 579 250 q 652 220 621 250 q 682 147 682 189 q 652 76 682 106 q 579 46 621 46 q 506 75 536 46 q 476 147 476 104 q 506 220 476 190 q 579 250 536 250 m 172 482 l 985 482 l 985 347 l 172 347 l 172 482 m 579 783 q 652 753 621 783 q 682 681 682 723 q 652 608 682 638 q 579 578 622 578 q 506 608 536 578 q 476 681 476 638 q 506 753 476 724 q 579 783 536 783 z "},"◊":{"ha":686,"x_min":4,"x_max":682,"o":"m 343 956 l 82 401 l 343 -158 l 604 401 l 343 956 m 343 1121 l 682 401 l 343 -323 l 4 401 l 343 1121 z "},"ÿ":{"ha":711,"x_min":16,"x_max":697,"o":"m 509 31 q 395 -220 457 -158 q 222 -282 333 -282 q 188 -280 205 -282 q 151 -273 171 -278 l 151 -109 l 157 -109 q 217 -93 196 -109 q 253 -39 238 -78 l 66 533 q 43 585 56 568 q 16 607 31 603 l 16 758 l 313 758 l 313 607 q 292 593 298 603 q 285 568 285 584 q 286 554 285 562 q 289 538 287 547 l 370 201 l 441 537 q 445 552 444 544 q 446 567 446 559 q 439 591 446 582 q 418 607 433 600 l 418 758 l 697 758 l 697 607 q 668 586 679 600 q 648 539 657 572 l 509 31 m 140 971 q 168 1036 140 1008 q 232 1064 195 1064 q 298 1037 271 1064 q 325 971 325 1009 q 297 906 325 933 q 232 879 270 879 q 168 907 195 879 q 140 971 140 935 m 386 972 q 413 1037 386 1010 q 477 1064 439 1064 q 543 1037 516 1064 q 570 972 570 1010 q 543 906 570 934 q 477 879 515 879 q 413 907 440 879 q 386 972 386 935 z "},"Ÿ":{"ha":765,"x_min":16,"x_max":762,"o":"m 216 0 l 217 174 q 258 202 246 180 q 271 271 271 224 l 271 396 l 71 804 q 44 847 57 832 q 16 865 31 861 l 16 1032 l 318 1032 l 318 905 q 323 842 318 866 q 338 796 328 818 l 407 653 l 475 790 q 492 840 486 813 q 497 905 497 867 l 497 1032 l 762 1032 l 762 865 q 734 846 747 861 q 707 806 721 832 l 509 408 l 509 273 q 520 197 509 216 q 561 174 531 178 l 561 0 l 216 0 m 168 1253 q 195 1318 168 1291 q 260 1346 222 1346 q 326 1319 298 1346 q 353 1253 353 1291 q 325 1188 353 1215 q 260 1161 298 1161 q 196 1189 223 1161 q 168 1253 168 1217 m 414 1255 q 440 1319 414 1292 q 505 1346 467 1346 q 571 1319 544 1346 q 598 1255 598 1293 q 571 1188 598 1216 q 505 1161 543 1161 q 441 1189 468 1161 q 414 1255 414 1217 z "},"∕":{"ha":289,"x_min":-240,"x_max":529,"o":"m -65 0 l -240 0 l 355 1032 l 529 1032 l -65 0 z "},"¤":{"ha":842,"x_min":-22,"x_max":771,"o":"m 90 685 q 99 844 90 793 q 131 930 109 895 q 242 1023 169 994 q 436 1053 315 1053 q 606 1034 522 1053 q 771 977 689 1015 l 771 733 l 546 734 q 517 817 545 789 q 436 844 490 844 q 352 809 378 844 q 326 693 326 774 l 326 664 l 550 664 l 510 575 l 326 575 l 326 458 l 458 458 l 418 370 l 326 370 l 326 339 q 352 222 326 258 q 436 187 378 187 q 518 214 490 187 q 546 290 546 240 l 546 349 l 771 349 l 771 58 q 607 -1 695 20 q 424 -21 519 -21 q 255 4 324 -21 q 146 79 186 29 q 103 172 115 118 q 90 347 90 225 l 90 370 l 0 370 l 40 458 l 90 458 l 90 575 l -22 575 l 18 664 l 90 664 l 90 685 z "},"‹":{"ha":392,"x_min":78,"x_max":326,"o":"m 179 138 l 78 392 l 179 646 l 326 646 l 229 392 l 326 138 l 179 138 z "},"›":{"ha":392,"x_min":66,"x_max":315,"o":"m 212 138 l 66 138 l 164 392 l 66 646 l 212 646 l 315 392 l 212 138 z "},"":{"ha":885,"x_min":78,"x_max":827,"o":"m 542 917 q 577 1002 542 966 q 663 1038 613 1038 q 747 1002 712 1038 q 782 917 782 967 q 747 832 782 867 q 663 798 711 798 q 578 833 614 798 q 542 917 542 869 m 779 257 q 789 180 779 199 q 827 154 799 161 l 827 0 l 521 0 l 521 154 q 558 181 547 158 q 568 269 568 205 l 568 510 q 558 579 568 562 q 521 607 549 597 l 521 758 l 779 758 l 779 257 m 78 0 l 78 154 q 114 179 104 162 q 123 245 123 196 l 123 591 l 78 591 l 78 758 l 123 758 l 123 823 q 179 985 123 930 q 342 1040 235 1040 q 389 1037 364 1040 q 439 1027 413 1034 l 439 876 l 429 876 l 416 876 q 356 854 376 876 q 336 789 336 833 l 336 758 l 424 758 l 424 591 l 336 591 l 336 248 q 347 179 336 198 q 383 154 357 161 l 383 0 l 78 0 z "},"":{"ha":885,"x_min":78,"x_max":827,"o":"m 779 257 q 789 180 779 199 q 827 154 799 161 l 827 0 l 521 0 l 521 154 q 558 181 547 158 q 568 269 568 205 l 568 783 q 558 853 568 836 q 521 880 549 870 l 521 1032 l 779 1032 l 779 257 m 78 0 l 78 154 q 114 179 104 162 q 123 245 123 196 l 123 591 l 78 591 l 78 758 l 123 758 l 123 823 q 179 985 123 930 q 342 1040 235 1040 q 389 1037 364 1040 q 439 1027 413 1034 l 439 876 l 429 876 l 416 876 q 356 854 376 876 q 336 789 336 833 l 336 758 l 424 758 l 424 591 l 336 591 l 336 248 q 347 179 336 198 q 383 154 357 161 l 383 0 l 78 0 z "},"‡":{"ha":694,"x_min":39,"x_max":656,"o":"m 250 0 l 250 241 l 39 241 l 39 378 l 250 378 l 250 660 l 39 660 l 39 796 l 250 796 l 250 1032 l 443 1032 l 443 796 l 656 796 l 656 660 l 443 660 l 443 378 l 656 378 l 656 241 l 443 241 l 443 0 l 250 0 z "},"·":{"ha":421,"x_min":100,"x_max":321,"o":"m 100 518 q 133 596 100 563 q 211 629 166 629 q 289 597 257 629 q 321 518 321 564 q 289 440 321 473 q 211 408 256 408 q 133 441 167 408 q 100 518 100 475 z "},"‚":{"ha":376,"x_min":111,"x_max":313,"o":"m 147 -82 q 186 -42 171 -64 q 208 4 202 -21 q 137 29 163 4 q 111 96 111 54 q 139 163 111 136 q 210 191 168 191 q 284 160 256 191 q 313 78 313 129 q 279 -30 313 23 q 184 -125 245 -83 l 147 -82 z "},"„":{"ha":633,"x_min":111,"x_max":570,"o":"m 404 -82 q 443 -42 428 -64 q 465 4 458 -21 q 394 29 420 4 q 368 96 368 54 q 396 163 368 136 q 467 191 425 191 q 541 160 513 191 q 570 78 570 129 q 536 -30 570 23 q 441 -125 503 -83 l 404 -82 m 147 -82 q 186 -42 171 -64 q 208 4 202 -21 q 137 29 163 4 q 111 96 111 54 q 139 163 111 136 q 210 191 168 191 q 284 160 256 191 q 313 78 313 129 q 279 -30 313 23 q 184 -125 245 -83 l 147 -82 z "},"‰":{"ha":1607,"x_min":37,"x_max":1568,"o":"m 1299 313 l 1299 165 q 1313 103 1299 123 q 1357 83 1327 83 q 1401 103 1386 83 q 1415 165 1415 123 l 1415 313 q 1401 375 1415 355 q 1357 395 1388 395 q 1313 375 1326 395 q 1299 313 1299 355 m 1145 288 q 1191 437 1145 394 q 1356 479 1237 479 q 1521 437 1475 479 q 1568 288 1568 395 l 1568 189 q 1522 42 1568 83 q 1356 0 1476 0 q 1190 41 1235 0 q 1145 189 1145 83 l 1145 288 m 785 313 l 785 165 q 799 103 785 123 q 842 83 812 83 q 886 103 871 83 q 900 165 900 123 l 900 313 q 886 375 900 355 q 842 395 872 395 q 798 375 812 395 q 785 313 785 356 m 629 288 q 676 437 629 394 q 842 479 723 479 q 1007 437 961 479 q 1054 288 1054 395 l 1054 189 q 1008 42 1054 83 q 842 0 963 0 q 675 42 721 0 q 629 189 629 83 l 629 288 m 192 867 l 192 718 q 206 657 192 676 q 250 637 220 637 q 294 657 280 637 q 309 718 309 676 l 309 867 q 294 928 309 908 q 250 947 280 947 q 206 928 220 947 q 192 867 192 908 m 37 842 q 83 991 37 949 q 249 1032 128 1032 q 415 990 369 1032 q 461 842 461 948 l 461 743 q 415 595 461 637 q 249 553 368 553 q 83 594 129 553 q 37 743 37 635 l 37 842 m 335 0 l 161 0 l 755 1032 l 929 1032 l 335 0 z "},"Â":{"ha":829,"x_min":32,"x_max":815,"o":"m 32 0 l 32 174 q 70 202 56 181 q 94 282 83 222 l 240 1032 l 595 1032 l 755 265 q 779 200 766 218 q 815 174 791 181 l 815 0 l 464 0 l 464 174 q 502 189 488 176 q 515 222 515 201 q 515 236 515 228 q 513 252 514 243 l 504 296 l 304 296 l 296 256 q 294 238 294 245 q 293 225 293 231 q 306 187 293 199 q 349 174 319 175 l 349 0 l 32 0 m 330 443 l 471 443 l 400 838 l 330 443 m 334 1381 l 496 1381 l 629 1129 l 533 1129 l 415 1276 l 296 1129 l 201 1129 l 334 1381 z "},"Ê":{"ha":856,"x_min":69,"x_max":796,"o":"m 69 0 l 69 174 q 111 199 100 180 q 122 281 122 218 l 122 758 q 111 840 122 821 q 69 865 100 859 l 69 1032 l 796 1032 l 796 717 l 572 717 l 572 728 q 545 811 572 787 q 449 835 518 835 l 361 835 l 361 619 l 643 619 l 643 446 l 361 446 l 361 197 l 465 197 q 549 221 526 197 q 572 309 572 244 l 572 346 l 796 346 l 796 0 l 69 0 m 347 1381 l 509 1381 l 642 1129 l 546 1129 l 428 1276 l 309 1129 l 214 1129 l 347 1381 z "},"Á":{"ha":829,"x_min":32,"x_max":815,"o":"m 32 0 l 32 174 q 70 202 56 181 q 94 282 83 222 l 240 1032 l 595 1032 l 755 265 q 779 200 766 218 q 815 174 791 181 l 815 0 l 464 0 l 464 174 q 502 189 488 176 q 515 222 515 201 q 515 236 515 228 q 513 252 514 243 l 504 296 l 304 296 l 296 256 q 294 238 294 245 q 293 225 293 231 q 306 187 293 199 q 349 174 319 175 l 349 0 l 32 0 m 330 443 l 471 443 l 400 838 l 330 443 m 439 1381 l 614 1381 l 401 1129 l 305 1129 l 439 1381 z "},"Ë":{"ha":856,"x_min":69,"x_max":796,"o":"m 69 0 l 69 174 q 111 199 100 180 q 122 281 122 218 l 122 758 q 111 840 122 821 q 69 865 100 859 l 69 1032 l 796 1032 l 796 717 l 572 717 l 572 728 q 545 811 572 787 q 449 835 518 835 l 361 835 l 361 619 l 643 619 l 643 446 l 361 446 l 361 197 l 465 197 q 549 221 526 197 q 572 309 572 244 l 572 346 l 796 346 l 796 0 l 69 0 m 213 1253 q 240 1318 213 1291 q 304 1346 267 1346 q 370 1319 343 1346 q 397 1253 397 1291 q 370 1188 397 1215 q 304 1161 342 1161 q 240 1189 268 1161 q 213 1253 213 1217 m 458 1255 q 485 1319 458 1292 q 550 1346 512 1346 q 616 1319 589 1346 q 643 1255 643 1293 q 615 1188 643 1216 q 550 1161 588 1161 q 486 1189 513 1161 q 458 1255 458 1217 z "},"È":{"ha":856,"x_min":69,"x_max":796,"o":"m 69 0 l 69 174 q 111 199 100 180 q 122 281 122 218 l 122 758 q 111 840 122 821 q 69 865 100 859 l 69 1032 l 796 1032 l 796 717 l 572 717 l 572 728 q 545 811 572 787 q 449 835 518 835 l 361 835 l 361 619 l 643 619 l 643 446 l 361 446 l 361 197 l 465 197 q 549 221 526 197 q 572 309 572 244 l 572 346 l 796 346 l 796 0 l 69 0 m 229 1381 l 404 1381 l 538 1129 l 441 1129 l 229 1381 z "},"Í":{"ha":492,"x_min":74,"x_max":444,"o":"m 366 281 q 376 198 366 216 q 416 174 387 180 l 416 0 l 74 0 l 74 174 q 115 199 104 180 q 126 281 126 218 l 126 758 q 115 840 126 821 q 74 865 104 859 l 74 1032 l 416 1032 l 416 865 q 376 840 387 859 q 366 758 366 822 l 366 281 m 269 1381 l 444 1381 l 232 1129 l 136 1129 l 269 1381 z "},"Î":{"ha":492,"x_min":32,"x_max":459,"o":"m 366 281 q 376 198 366 216 q 416 174 387 180 l 416 0 l 74 0 l 74 174 q 115 199 104 180 q 126 281 126 218 l 126 758 q 115 840 126 821 q 74 865 104 859 l 74 1032 l 416 1032 l 416 865 q 376 840 387 859 q 366 758 366 822 l 366 281 m 165 1381 l 326 1381 l 459 1129 l 363 1129 l 245 1276 l 126 1129 l 32 1129 l 165 1381 z "},"Ï":{"ha":492,"x_min":31,"x_max":460,"o":"m 366 281 q 376 198 366 216 q 416 174 387 180 l 416 0 l 74 0 l 74 174 q 115 199 104 180 q 126 281 126 218 l 126 758 q 115 840 126 821 q 74 865 104 859 l 74 1032 l 416 1032 l 416 865 q 376 840 387 859 q 366 758 366 822 l 366 281 m 31 1253 q 58 1318 31 1291 q 122 1346 85 1346 q 188 1319 161 1346 q 215 1253 215 1291 q 188 1188 215 1215 q 122 1161 160 1161 q 58 1189 85 1161 q 31 1253 31 1217 m 276 1255 q 303 1319 276 1292 q 368 1346 330 1346 q 433 1319 406 1346 q 460 1255 460 1293 q 433 1188 460 1216 q 368 1161 406 1161 q 303 1189 330 1161 q 276 1255 276 1217 z "},"Ì":{"ha":492,"x_min":47,"x_max":416,"o":"m 366 281 q 376 198 366 216 q 416 174 387 180 l 416 0 l 74 0 l 74 174 q 115 199 104 180 q 126 281 126 218 l 126 758 q 115 840 126 821 q 74 865 104 859 l 74 1032 l 416 1032 l 416 865 q 376 840 387 859 q 366 758 366 822 l 366 281 m 47 1381 l 222 1381 l 355 1129 l 259 1129 l 47 1381 z "},"Ó":{"ha":840,"x_min":74,"x_max":766,"o":"m 311 693 l 311 339 q 337 222 311 258 q 421 187 363 187 q 504 222 478 187 q 529 339 529 257 l 529 693 q 504 809 529 774 q 421 844 478 844 q 337 809 363 844 q 311 693 311 774 m 74 685 q 86 863 74 810 q 129 953 99 915 q 240 1028 170 1004 q 421 1053 311 1053 q 600 1028 530 1053 q 711 953 669 1004 q 754 861 741 915 q 766 685 766 807 l 766 347 q 754 171 766 224 q 711 79 741 117 q 600 3 669 28 q 421 -21 530 -21 q 240 3 311 -21 q 129 79 170 28 q 86 169 99 117 q 74 347 74 221 l 74 685 m 445 1381 l 620 1381 l 408 1129 l 311 1129 l 445 1381 z "},"Ô":{"ha":840,"x_min":74,"x_max":766,"o":"m 311 693 l 311 339 q 337 222 311 258 q 421 187 363 187 q 504 222 478 187 q 529 339 529 257 l 529 693 q 504 809 529 774 q 421 844 478 844 q 337 809 363 844 q 311 693 311 774 m 74 685 q 86 863 74 810 q 129 953 99 915 q 240 1028 170 1004 q 421 1053 311 1053 q 600 1028 530 1053 q 711 953 669 1004 q 754 861 741 915 q 766 685 766 807 l 766 347 q 754 171 766 224 q 711 79 741 117 q 600 3 669 28 q 421 -21 530 -21 q 240 3 311 -21 q 129 79 170 28 q 86 169 99 117 q 74 347 74 221 l 74 685 m 340 1381 l 502 1381 l 635 1129 l 539 1129 l 421 1276 l 302 1129 l 208 1129 l 340 1381 z "},"":{"ha":1097,"x_min":77,"x_max":1021,"o":"m 567 825 q 566 834 566 829 q 566 850 566 840 q 630 1005 566 934 q 790 1095 694 1077 q 791 1079 791 1088 q 791 1053 791 1070 q 721 893 791 964 q 583 823 651 823 l 578 823 q 573 824 576 823 q 567 825 570 825 m 1021 273 q 882 41 943 106 q 743 -24 820 -24 q 654 -1 709 -24 q 571 21 599 21 q 482 -1 541 21 q 396 -24 424 -24 q 309 6 353 -24 q 221 96 265 36 q 114 296 152 191 q 77 500 77 401 q 161 742 77 648 q 380 835 246 835 q 486 812 427 835 q 570 789 545 789 q 652 812 593 789 q 755 836 711 836 q 890 809 830 836 q 999 725 949 782 q 896 626 930 681 q 863 503 863 572 q 903 367 863 426 q 1021 273 944 308 z "},"Ò":{"ha":840,"x_min":74,"x_max":766,"o":"m 311 693 l 311 339 q 337 222 311 258 q 421 187 363 187 q 504 222 478 187 q 529 339 529 257 l 529 693 q 504 809 529 774 q 421 844 478 844 q 337 809 363 844 q 311 693 311 774 m 74 685 q 86 863 74 810 q 129 953 99 915 q 240 1028 170 1004 q 421 1053 311 1053 q 600 1028 530 1053 q 711 953 669 1004 q 754 861 741 915 q 766 685 766 807 l 766 347 q 754 171 766 224 q 711 79 741 117 q 600 3 669 28 q 421 -21 530 -21 q 240 3 311 -21 q 129 79 170 28 q 86 169 99 117 q 74 347 74 221 l 74 685 m 222 1381 l 397 1381 l 531 1129 l 435 1129 l 222 1381 z "},"Ú":{"ha":900,"x_min":64,"x_max":836,"o":"m 64 865 l 64 1032 l 410 1032 l 410 865 q 369 832 380 855 q 357 741 357 809 l 357 340 q 382 223 357 259 q 465 187 408 187 q 550 224 522 187 q 578 336 578 261 l 578 770 q 566 836 578 815 q 524 865 553 857 l 524 1032 l 836 1032 l 836 865 q 793 837 805 859 q 781 755 781 816 l 781 328 q 766 176 781 228 q 717 82 751 123 q 608 6 675 33 q 460 -21 542 -21 q 199 63 278 -21 q 121 345 121 146 l 121 761 q 109 834 121 816 q 64 865 98 853 m 474 1381 l 649 1381 l 437 1129 l 340 1129 l 474 1381 z "},"Û":{"ha":900,"x_min":64,"x_max":836,"o":"m 64 865 l 64 1032 l 410 1032 l 410 865 q 369 832 380 855 q 357 741 357 809 l 357 340 q 382 223 357 259 q 465 187 408 187 q 550 224 522 187 q 578 336 578 261 l 578 770 q 566 836 578 815 q 524 865 553 857 l 524 1032 l 836 1032 l 836 865 q 793 837 805 859 q 781 755 781 816 l 781 328 q 766 176 781 228 q 717 82 751 123 q 608 6 675 33 q 460 -21 542 -21 q 199 63 278 -21 q 121 345 121 146 l 121 761 q 109 834 121 816 q 64 865 98 853 m 370 1381 l 531 1381 l 664 1129 l 568 1129 l 450 1276 l 331 1129 l 237 1129 l 370 1381 z "},"Ù":{"ha":900,"x_min":64,"x_max":836,"o":"m 64 865 l 64 1032 l 410 1032 l 410 865 q 369 832 380 855 q 357 741 357 809 l 357 340 q 382 223 357 259 q 465 187 408 187 q 550 224 522 187 q 578 336 578 261 l 578 770 q 566 836 578 815 q 524 865 553 857 l 524 1032 l 836 1032 l 836 865 q 793 837 805 859 q 781 755 781 816 l 781 328 q 766 176 781 228 q 717 82 751 123 q 608 6 675 33 q 460 -21 542 -21 q 199 63 278 -21 q 121 345 121 146 l 121 761 q 109 834 121 816 q 64 865 98 853 m 252 1381 l 427 1381 l 560 1129 l 464 1129 l 252 1381 z "},"ı":{"ha":429,"x_min":65,"x_max":371,"o":"m 325 257 q 335 179 325 197 q 371 154 345 161 l 371 0 l 65 0 l 65 154 q 102 181 92 158 q 113 269 113 205 l 113 510 q 103 579 113 562 q 65 607 93 597 l 65 758 l 325 758 l 325 257 z "},"ˆ":{"ha":694,"x_min":134,"x_max":561,"o":"m 267 1099 l 428 1099 l 561 847 l 465 847 l 347 994 l 228 847 l 134 847 l 267 1099 z "},"˜":{"ha":694,"x_min":132,"x_max":562,"o":"m 488 1065 l 562 1065 q 509 940 543 980 q 421 900 475 900 q 395 902 407 900 q 371 907 382 903 l 311 925 q 290 930 300 928 q 267 932 279 932 q 229 919 243 932 q 207 879 215 907 l 132 879 q 182 1000 149 962 q 271 1039 216 1039 q 298 1037 283 1039 q 329 1029 313 1034 l 392 1013 q 395 1012 393 1013 q 429 1007 416 1007 q 465 1021 451 1007 q 488 1065 479 1034 z "},"¯":{"ha":694,"x_min":153,"x_max":542,"o":"m 153 1023 l 542 1023 l 542 918 l 153 918 l 153 1023 z "},"˘":{"ha":694,"x_min":138,"x_max":555,"o":"m 138 1075 l 221 1075 q 256 999 226 1023 q 347 975 286 975 q 438 999 408 975 q 472 1075 468 1023 l 555 1075 q 497 919 547 968 q 347 869 448 869 q 196 920 248 869 q 138 1075 145 970 z "},"˙":{"ha":694,"x_min":256,"x_max":439,"o":"m 256 972 q 283 1037 256 1009 q 347 1064 310 1064 q 412 1037 386 1064 q 439 972 439 1010 q 412 907 439 935 q 347 880 385 880 q 283 908 311 880 q 256 972 256 936 z "},"˚":{"ha":694,"x_min":168,"x_max":528,"o":"m 347 1097 q 289 1073 313 1097 q 265 1014 265 1049 q 289 955 265 979 q 347 932 312 932 q 406 956 382 932 q 431 1014 431 980 q 406 1073 431 1048 q 347 1097 382 1097 m 347 1194 q 475 1142 422 1194 q 528 1015 528 1090 q 475 886 528 939 q 347 833 422 833 q 220 886 272 833 q 168 1015 168 939 q 220 1142 168 1090 q 347 1194 272 1194 z "},"¸":{"ha":694,"x_min":192,"x_max":551,"o":"m 314 0 l 382 0 l 382 -61 l 392 -61 q 511 -94 471 -61 q 551 -191 551 -126 q 507 -292 551 -258 q 372 -326 462 -326 q 293 -319 340 -326 q 192 -297 247 -311 l 192 -210 q 292 -232 249 -224 q 366 -239 336 -239 q 417 -227 400 -239 q 433 -189 433 -214 q 415 -153 433 -163 q 353 -142 396 -142 q 329 -142 338 -142 q 313 -143 320 -142 l 314 0 z "},"˝":{"ha":694,"x_min":200,"x_max":642,"o":"m 486 1099 l 642 1099 l 458 847 l 382 847 l 486 1099 m 278 1099 l 428 1099 l 271 847 l 200 847 l 278 1099 z "},"˛":{"ha":694,"x_min":231,"x_max":464,"o":"m 359 0 l 425 0 q 361 -69 384 -33 q 339 -139 339 -105 q 353 -180 339 -166 q 395 -193 366 -193 l 464 -193 l 464 -311 l 392 -311 q 271 -280 312 -311 q 231 -186 231 -248 q 261 -94 231 -137 q 359 0 291 -50 z "},"ˇ":{"ha":694,"x_min":134,"x_max":561,"o":"m 134 1099 l 228 1099 l 347 950 l 465 1099 l 561 1099 l 428 847 l 267 847 l 134 1099 z "},"Ł":{"ha":833,"x_min":32,"x_max":799,"o":"m 799 0 l 103 0 l 103 174 q 143 198 132 180 q 154 281 154 216 l 154 412 l 32 357 l 32 515 l 154 571 l 154 758 q 143 841 154 823 q 103 865 132 859 l 103 1032 l 446 1032 l 446 865 q 404 840 415 859 q 393 758 393 821 l 393 653 l 590 741 l 590 583 l 393 494 l 393 196 l 471 196 q 566 224 540 196 q 591 354 591 253 l 591 468 l 799 468 l 799 0 z "},"ł":{"ha":493,"x_min":32,"x_max":469,"o":"m 357 257 q 367 180 357 199 q 404 154 377 161 l 404 0 l 98 0 l 98 154 q 135 180 125 158 q 144 269 144 203 l 144 401 l 32 343 l 32 494 l 144 551 l 144 783 q 135 854 144 838 q 98 880 125 871 l 98 1032 l 357 1032 l 357 615 l 469 673 l 469 522 l 357 465 l 357 257 z "},"Š":{"ha":836,"x_min":69,"x_max":774,"o":"m 74 98 l 74 357 l 306 357 l 306 336 q 335 226 306 261 q 427 191 365 191 q 505 220 475 191 q 534 298 534 250 q 503 377 534 345 q 392 439 471 409 q 341 458 374 446 q 170 541 220 501 q 93 632 117 581 q 69 753 69 682 q 163 972 69 892 q 418 1053 257 1053 q 596 1025 512 1053 q 755 940 680 997 l 755 697 l 528 697 l 528 715 q 499 817 528 782 q 416 851 471 851 q 335 825 366 851 q 304 755 304 799 q 339 687 304 715 q 496 618 373 660 q 715 494 657 563 q 774 302 774 426 q 680 67 774 155 q 427 -21 586 -21 q 236 9 326 -21 q 74 98 146 40 m 204 1381 l 298 1381 l 418 1232 l 536 1381 l 631 1381 l 498 1129 l 337 1129 l 204 1381 z "},"š":{"ha":697,"x_min":53,"x_max":656,"o":"m 56 47 l 56 252 l 267 252 q 285 171 267 196 q 345 146 304 146 q 398 165 378 146 q 418 216 418 184 q 397 268 418 248 q 324 304 376 288 q 277 318 308 309 q 144 368 188 342 q 75 436 96 396 q 53 536 53 476 q 132 708 53 644 q 346 772 212 772 q 491 755 418 772 q 633 705 564 739 l 633 514 l 436 514 l 436 518 q 416 589 436 565 q 355 614 395 614 q 303 594 322 614 q 283 542 283 575 q 414 449 283 486 q 494 425 465 435 q 620 349 584 395 q 656 218 656 302 q 585 47 656 106 q 382 -12 515 -12 q 217 2 298 -12 q 56 47 137 17 m 135 1099 l 229 1099 l 349 950 l 467 1099 l 562 1099 l 429 847 l 268 847 l 135 1099 z "},"Ž":{"ha":836,"x_min":62,"x_max":768,"o":"m 62 0 l 62 151 l 473 836 l 407 836 q 290 813 316 836 q 264 725 264 790 l 264 686 l 75 686 l 75 1032 l 762 1032 l 762 878 l 364 204 l 437 204 q 535 226 509 204 q 561 306 561 248 l 561 340 l 768 340 l 768 0 l 62 0 m 204 1381 l 298 1381 l 418 1232 l 536 1381 l 631 1381 l 498 1129 l 337 1129 l 204 1381 z "},"ž":{"ha":707,"x_min":41,"x_max":663,"o":"m 41 0 l 41 150 l 400 610 l 349 610 q 245 590 268 610 q 222 511 223 570 l 41 511 l 41 758 l 663 758 l 663 624 l 296 150 l 359 150 q 458 174 432 150 q 484 262 484 197 l 663 262 l 663 0 l 41 0 m 140 1099 l 235 1099 l 354 950 l 472 1099 l 568 1099 l 435 847 l 273 847 l 140 1099 z "},"¦":{"ha":694,"x_min":278,"x_max":418,"o":"m 278 277 l 418 277 l 418 -237 l 278 -237 l 278 277 m 278 971 l 418 971 l 418 457 l 278 457 l 278 971 z "},"Ð":{"ha":917,"x_min":32,"x_max":843,"o":"m 393 207 l 464 207 q 576 234 549 207 q 604 351 604 262 l 604 663 q 577 798 604 766 q 476 829 550 829 l 463 829 l 393 828 l 393 603 l 498 603 l 498 458 l 393 458 l 393 207 m 446 0 l 103 0 l 103 174 q 143 198 132 180 q 154 281 154 216 l 154 458 l 32 458 l 32 603 l 154 603 l 154 758 q 143 841 154 823 q 103 865 132 859 l 103 1032 l 446 1032 q 759 948 675 1032 q 843 643 843 865 l 843 396 q 763 81 843 163 q 446 0 683 0 z "},"ð":{"ha":746,"x_min":68,"x_max":677,"o":"m 282 465 l 282 256 q 303 163 282 191 q 374 135 325 135 q 444 162 422 135 q 465 256 465 190 l 465 465 q 444 558 465 530 q 374 586 422 586 q 304 557 326 586 q 282 465 282 529 m 677 244 q 606 48 677 109 q 374 -12 534 -12 q 140 48 213 -12 q 68 244 68 109 l 68 475 q 141 672 68 612 q 382 732 214 732 l 395 732 q 351 791 373 762 q 307 847 329 820 l 106 765 l 69 846 l 250 920 q 184 994 212 964 q 129 1053 157 1025 l 321 1053 l 332 1044 q 397 983 378 1002 l 568 1051 l 604 968 l 467 909 q 631 683 584 781 q 677 475 677 584 l 677 244 z "},"Ý":{"ha":765,"x_min":16,"x_max":762,"o":"m 216 0 l 217 174 q 258 202 246 180 q 271 271 271 224 l 271 396 l 71 804 q 44 847 57 832 q 16 865 31 861 l 16 1032 l 318 1032 l 318 905 q 323 842 318 866 q 338 796 328 818 l 407 653 l 475 790 q 492 840 486 813 q 497 905 497 867 l 497 1032 l 762 1032 l 762 865 q 734 846 747 861 q 707 806 721 832 l 509 408 l 509 273 q 520 197 509 216 q 561 174 531 178 l 561 0 l 216 0 m 407 1381 l 582 1381 l 370 1129 l 273 1129 l 407 1381 z "},"ý":{"ha":711,"x_min":16,"x_max":697,"o":"m 509 31 q 395 -220 457 -158 q 222 -282 333 -282 q 188 -280 205 -282 q 151 -273 171 -278 l 151 -109 l 157 -109 q 217 -93 196 -109 q 253 -39 238 -78 l 66 533 q 43 585 56 568 q 16 607 31 603 l 16 758 l 313 758 l 313 607 q 292 593 298 603 q 285 568 285 584 q 286 554 285 562 q 289 538 287 547 l 370 201 l 441 537 q 445 552 444 544 q 446 567 446 559 q 439 591 446 582 q 418 607 433 600 l 418 758 l 697 758 l 697 607 q 668 586 679 600 q 648 539 657 572 l 509 31 m 379 1099 l 554 1099 l 342 847 l 245 847 l 379 1099 z "},"Þ":{"ha":807,"x_min":69,"x_max":778,"o":"m 361 424 l 443 424 q 536 447 513 424 q 559 536 559 471 q 535 629 559 604 q 444 654 511 654 l 361 654 l 361 424 m 412 903 q 372 885 383 899 q 361 840 361 871 l 468 840 q 706 775 635 840 q 778 559 778 711 q 711 303 778 372 q 468 235 644 235 l 361 235 l 361 221 q 372 156 361 174 q 412 132 383 138 l 412 0 l 69 0 l 69 174 q 111 199 100 180 q 122 281 122 218 l 122 758 q 111 840 122 821 q 69 865 100 859 l 69 1032 l 412 1032 l 412 903 z "},"þ":{"ha":798,"x_min":57,"x_max":728,"o":"m 510 467 q 487 576 510 545 q 410 607 464 607 q 362 598 385 607 q 315 571 338 589 l 315 187 q 370 164 346 172 q 416 157 395 157 q 489 191 467 157 q 510 313 510 225 l 510 467 m 728 496 l 728 289 q 676 58 728 123 q 503 -7 625 -7 q 413 6 458 -7 q 315 45 367 18 l 315 -12 q 325 -90 315 -72 q 361 -115 334 -109 l 361 -269 l 57 -269 l 57 -115 q 93 -89 83 -111 q 103 -1 103 -67 l 103 783 q 93 854 103 838 q 57 880 83 871 l 57 1032 l 315 1032 l 315 711 q 412 754 366 740 q 503 768 458 768 q 674 704 621 768 q 728 496 728 640 z "},"−":{"ha":1157,"x_min":172,"x_max":985,"o":"m 172 484 l 985 484 l 985 346 l 172 346 l 172 484 z "},"×":{"ha":1157,"x_min":187,"x_max":989,"o":"m 282 815 l 587 510 l 893 815 l 989 721 l 684 414 l 989 109 l 893 14 l 587 319 l 282 14 l 187 109 l 493 414 l 187 721 l 282 815 z "},"¹":{"ha":555,"x_min":165,"x_max":392,"o":"m 165 1032 l 357 1032 l 357 581 q 364 532 357 543 q 392 517 372 521 l 392 412 l 165 412 l 165 517 q 193 532 186 521 q 200 581 200 543 l 200 868 q 193 917 200 905 q 165 932 185 928 l 165 1032 z "},"²":{"ha":555,"x_min":46,"x_max":511,"o":"m 58 821 l 58 987 q 159 1029 100 1014 q 281 1044 218 1044 q 453 1005 398 1044 q 509 880 509 965 q 488 793 509 829 q 400 710 468 758 l 250 602 q 215 570 224 583 q 207 538 207 556 l 207 532 l 273 532 q 330 543 315 532 q 345 590 345 554 l 345 610 l 511 610 l 511 412 l 46 412 l 46 557 q 61 631 46 603 q 121 692 77 660 l 296 815 q 334 850 323 836 q 345 880 345 865 q 328 920 345 906 q 282 935 311 935 q 227 917 247 935 q 207 867 207 899 l 207 821 l 58 821 z "},"³":{"ha":555,"x_min":41,"x_max":504,"o":"m 50 848 l 50 989 q 157 1030 98 1016 q 277 1044 215 1044 q 441 1001 385 1044 q 498 873 498 957 q 470 783 498 817 q 382 733 441 748 q 473 688 443 725 q 504 585 504 650 q 445 447 504 493 q 269 400 386 400 q 155 415 213 400 q 41 457 96 429 l 41 604 l 197 604 l 197 599 q 216 544 197 562 q 271 525 235 525 q 324 544 306 525 q 342 599 342 562 q 321 656 342 640 q 248 673 300 673 l 163 673 l 163 779 l 253 779 q 320 798 296 779 q 345 850 345 817 q 323 901 345 883 q 265 920 302 920 q 217 902 234 920 q 199 849 201 884 l 50 848 z "},"¼":{"ha":1350,"x_min":157,"x_max":1296,"o":"m 1253 578 l 1253 264 l 1296 264 l 1296 154 l 1253 154 l 1253 146 q 1260 110 1253 120 q 1286 97 1267 100 l 1286 0 l 1078 0 l 1078 97 q 1103 110 1096 100 q 1109 146 1109 120 l 1109 154 l 842 154 l 842 278 l 1067 578 l 1253 578 m 1109 264 l 1109 446 l 977 264 l 1109 264 m 465 0 l 290 0 l 886 1032 l 1060 1032 l 465 0 m 157 1032 l 340 1032 l 340 611 q 347 565 340 575 q 372 551 354 555 l 372 454 l 157 454 l 157 551 q 183 565 176 555 q 191 611 191 575 l 191 879 q 183 924 191 914 q 157 939 176 935 l 157 1032 z "},"½":{"ha":1350,"x_min":157,"x_max":1308,"o":"m 875 380 l 875 536 q 971 575 914 561 q 1088 589 1028 589 q 1252 552 1200 589 q 1304 436 1304 515 q 1284 354 1304 388 q 1202 277 1265 321 l 1059 176 q 1025 146 1034 159 q 1017 117 1017 134 l 1017 113 l 1080 113 q 1135 123 1121 113 q 1149 167 1149 133 l 1149 184 l 1308 184 l 1308 0 l 864 0 l 864 135 q 878 204 864 178 q 935 261 892 231 l 1101 376 q 1137 408 1127 394 q 1147 437 1147 421 q 1132 475 1147 462 q 1088 488 1116 488 q 1036 470 1055 488 q 1017 424 1017 453 l 1017 380 l 875 380 m 465 0 l 290 0 l 886 1032 l 1060 1032 l 465 0 m 157 1032 l 340 1032 l 340 611 q 347 565 340 575 q 372 551 354 555 l 372 454 l 157 454 l 157 551 q 183 565 176 555 q 191 611 191 575 l 191 879 q 183 924 191 914 q 157 939 176 935 l 157 1032 z "},"¾":{"ha":1350,"x_min":40,"x_max":1296,"o":"m 1253 578 l 1253 264 l 1296 264 l 1296 154 l 1253 154 l 1253 146 q 1260 110 1253 120 q 1286 97 1267 100 l 1286 0 l 1078 0 l 1078 97 q 1103 110 1096 100 q 1109 146 1109 120 l 1109 154 l 842 154 l 842 278 l 1067 578 l 1253 578 m 1109 264 l 1109 446 l 977 264 l 1109 264 m 465 0 l 290 0 l 886 1032 l 1060 1032 l 465 0 m 47 861 l 47 993 q 148 1030 92 1017 q 264 1043 204 1043 q 421 1002 367 1043 q 476 885 476 962 q 448 800 476 832 q 364 754 420 768 q 453 711 423 746 q 482 614 482 675 q 425 486 482 530 q 257 443 368 443 q 145 456 201 443 q 40 496 90 470 l 40 633 l 187 633 l 187 628 q 205 577 187 594 q 258 559 223 559 q 309 577 292 559 q 326 628 326 595 q 307 683 326 667 q 236 699 287 699 l 155 699 l 155 796 l 241 796 q 305 813 283 796 q 328 863 328 831 q 308 910 328 893 q 254 928 289 928 q 208 911 224 928 q 189 861 191 895 l 47 861 z "},"₣":{"ha":1310,"x_min":69,"x_max":1284,"o":"m 69 0 l 69 174 q 111 199 100 180 q 122 281 122 218 l 122 758 q 111 840 122 821 q 69 865 100 859 l 69 1032 l 778 1032 l 778 715 l 568 715 l 568 725 q 543 807 568 783 q 453 831 517 831 l 361 831 l 361 621 l 629 621 l 629 447 l 361 447 l 361 281 q 373 198 361 219 q 414 174 385 176 l 414 0 l 69 0 m 1140 257 q 1150 180 1140 199 q 1187 154 1160 161 l 1187 0 l 882 0 l 882 154 q 919 181 908 158 q 929 269 929 205 l 929 510 q 919 579 929 562 q 882 607 909 597 l 882 758 l 1131 758 l 1131 696 q 1184 745 1154 728 q 1253 761 1215 761 q 1281 759 1263 761 q 1284 758 1283 758 l 1284 536 q 1276 537 1282 536 q 1250 539 1257 539 q 1166 504 1192 539 q 1140 390 1140 468 l 1140 257 z "},"Ğ":{"ha":839,"x_min":74,"x_max":754,"o":"m 74 685 q 83 846 74 797 q 114 930 92 895 q 226 1023 152 994 q 421 1053 300 1053 q 589 1034 506 1053 q 754 977 673 1015 l 754 703 l 529 703 l 529 708 q 502 811 529 777 q 421 844 475 844 q 337 809 363 844 q 311 693 311 774 l 311 339 q 337 222 311 258 q 421 187 363 187 q 504 222 478 187 q 529 339 529 257 l 529 375 l 433 375 l 433 541 l 754 541 l 754 77 q 597 4 682 28 q 421 -21 513 -21 q 240 3 311 -21 q 129 79 170 28 q 86 172 99 118 q 74 347 74 226 l 74 685 m 210 1357 l 293 1357 q 328 1281 298 1305 q 419 1257 358 1257 q 510 1281 480 1257 q 544 1357 540 1305 l 627 1357 q 569 1201 619 1250 q 419 1152 519 1152 q 268 1202 319 1152 q 210 1357 217 1252 z "},"ğ":{"ha":798,"x_min":68,"x_max":739,"o":"m 481 197 l 481 571 q 434 598 457 589 q 386 607 411 607 q 309 576 332 607 q 286 467 286 545 l 286 322 q 308 201 286 235 q 379 167 329 167 q 426 174 401 167 q 481 197 450 181 m 481 54 q 382 15 429 28 q 289 3 336 3 q 178 25 225 3 q 103 90 132 47 q 76 158 84 119 q 68 281 68 197 l 68 298 l 68 496 q 121 704 68 640 q 292 768 174 768 q 384 754 337 768 q 481 711 431 740 l 481 758 l 739 758 l 739 607 q 703 582 713 598 q 693 510 693 566 l 693 41 q 683 -98 693 -53 q 647 -179 672 -144 q 547 -257 610 -231 q 400 -283 485 -283 q 245 -264 319 -283 q 100 -207 171 -245 l 100 -28 l 304 -28 l 304 -32 q 328 -101 304 -77 q 392 -126 351 -126 q 459 -99 438 -126 q 481 -12 481 -73 l 481 54 m 189 1075 l 273 1075 q 308 999 277 1023 q 399 975 338 975 q 490 999 460 975 q 524 1075 519 1023 l 607 1075 q 549 919 599 968 q 399 869 499 869 q 248 920 299 869 q 189 1075 197 970 z "},"İ":{"ha":492,"x_min":74,"x_max":416,"o":"m 366 281 q 376 198 366 216 q 416 174 387 180 l 416 0 l 74 0 l 74 174 q 115 199 104 180 q 126 281 126 218 l 126 758 q 115 840 126 821 q 74 865 104 859 l 74 1032 l 416 1032 l 416 865 q 376 840 387 859 q 366 758 366 822 l 366 281 m 154 1255 q 181 1319 154 1291 q 245 1346 208 1346 q 311 1319 284 1346 q 337 1255 337 1293 q 310 1190 337 1217 q 245 1162 283 1162 q 182 1190 210 1162 q 154 1255 154 1218 z "},"Ş":{"ha":836,"x_min":69,"x_max":774,"o":"m 74 98 l 74 357 l 306 357 l 306 336 q 335 226 306 261 q 427 191 365 191 q 505 220 475 191 q 534 298 534 250 q 503 377 534 345 q 392 439 471 409 q 341 458 374 446 q 170 541 220 501 q 93 632 117 581 q 69 753 69 682 q 163 972 69 892 q 418 1053 257 1053 q 596 1025 512 1053 q 755 940 680 997 l 755 697 l 528 697 l 528 715 q 499 817 528 782 q 416 851 471 851 q 335 825 366 851 q 304 755 304 799 q 339 687 304 715 q 496 618 373 660 q 715 494 657 563 q 774 302 774 426 q 680 67 774 155 q 427 -21 586 -21 q 236 9 326 -21 q 74 98 146 40 m 385 0 l 452 0 l 452 -61 l 463 -61 q 582 -94 542 -61 q 622 -191 622 -126 q 577 -292 622 -258 q 443 -326 532 -326 q 364 -319 410 -326 q 262 -297 317 -311 l 262 -210 q 363 -232 319 -224 q 436 -239 406 -239 q 487 -227 471 -239 q 504 -189 504 -214 q 485 -153 504 -163 q 423 -142 467 -142 q 400 -142 409 -142 q 383 -143 391 -142 l 385 0 z "},"ş":{"ha":697,"x_min":53,"x_max":656,"o":"m 56 47 l 56 252 l 267 252 q 285 171 267 196 q 345 146 304 146 q 398 165 378 146 q 418 216 418 184 q 397 268 418 248 q 324 304 376 288 q 277 318 308 309 q 144 368 188 342 q 75 436 96 396 q 53 536 53 476 q 132 708 53 644 q 346 772 212 772 q 491 755 418 772 q 633 705 564 739 l 633 514 l 436 514 l 436 518 q 416 589 436 565 q 355 614 395 614 q 303 594 322 614 q 283 542 283 575 q 414 449 283 486 q 494 425 465 435 q 620 349 584 395 q 656 218 656 302 q 585 47 656 106 q 382 -12 515 -12 q 217 2 298 -12 q 56 47 137 17 m 315 0 l 383 0 l 383 -61 l 393 -61 q 513 -94 473 -61 q 553 -191 553 -126 q 508 -292 553 -258 q 374 -326 463 -326 q 295 -319 341 -326 q 193 -297 248 -311 l 193 -210 q 294 -232 250 -224 q 367 -239 337 -239 q 418 -227 401 -239 q 435 -189 435 -214 q 416 -153 435 -163 q 354 -142 397 -142 q 331 -142 340 -142 q 314 -143 321 -142 l 315 0 z "},"Ć":{"ha":839,"x_min":74,"x_max":754,"o":"m 74 685 q 83 846 74 797 q 114 930 92 895 q 226 1023 152 994 q 421 1053 300 1053 q 589 1034 506 1053 q 754 977 673 1015 l 754 685 l 529 685 l 529 705 q 502 810 529 776 q 421 844 475 844 q 337 809 363 844 q 311 693 311 774 l 311 339 q 337 222 311 258 q 421 187 363 187 q 504 222 478 187 q 529 339 529 257 l 529 412 l 754 412 l 754 58 q 594 -1 680 20 q 421 -21 508 -21 q 240 3 311 -21 q 129 79 170 28 q 86 171 99 117 q 74 347 74 224 l 74 685 m 443 1381 l 618 1381 l 406 1129 l 309 1129 l 443 1381 z "},"ć":{"ha":729,"x_min":68,"x_max":663,"o":"m 465 476 l 465 500 q 443 589 465 561 q 374 618 420 618 q 304 588 326 618 q 282 490 282 557 l 282 269 q 303 172 282 201 q 374 143 325 143 q 444 172 422 143 q 465 269 465 200 l 465 314 l 663 314 l 663 69 q 528 9 603 31 q 374 -12 452 -12 q 140 51 213 -12 q 68 257 68 115 l 68 501 q 139 707 68 641 q 363 772 211 772 q 515 752 439 772 q 663 690 591 731 l 663 476 l 465 476 m 397 1099 l 572 1099 l 360 847 l 264 847 l 397 1099 z "},"Č":{"ha":839,"x_min":74,"x_max":754,"o":"m 74 685 q 83 846 74 797 q 114 930 92 895 q 226 1023 152 994 q 421 1053 300 1053 q 589 1034 506 1053 q 754 977 673 1015 l 754 685 l 529 685 l 529 705 q 502 810 529 776 q 421 844 475 844 q 337 809 363 844 q 311 693 311 774 l 311 339 q 337 222 311 258 q 421 187 363 187 q 504 222 478 187 q 529 339 529 257 l 529 412 l 754 412 l 754 58 q 594 -1 680 20 q 421 -21 508 -21 q 240 3 311 -21 q 129 79 170 28 q 86 171 99 117 q 74 347 74 224 l 74 685 m 205 1381 l 300 1381 l 419 1232 l 537 1381 l 633 1381 l 500 1129 l 338 1129 l 205 1381 z "},"č":{"ha":729,"x_min":68,"x_max":663,"o":"m 465 476 l 465 500 q 443 589 465 561 q 374 618 420 618 q 304 588 326 618 q 282 490 282 557 l 282 269 q 303 172 282 201 q 374 143 325 143 q 444 172 422 143 q 465 269 465 200 l 465 314 l 663 314 l 663 69 q 528 9 603 31 q 374 -12 452 -12 q 140 51 213 -12 q 68 257 68 115 l 68 501 q 139 707 68 641 q 363 772 211 772 q 515 752 439 772 q 663 690 591 731 l 663 476 l 465 476 m 160 1099 l 254 1099 l 374 950 l 492 1099 l 587 1099 l 454 847 l 293 847 l 160 1099 z "},"đ":{"ha":804,"x_min":68,"x_max":804,"o":"m 286 292 q 309 182 286 214 q 386 151 332 151 q 434 160 411 151 q 481 187 457 169 l 481 507 q 426 530 450 523 q 379 538 401 538 q 308 504 329 538 q 286 382 286 469 l 286 292 m 68 262 l 68 443 q 74 537 68 505 q 92 595 79 570 q 168 674 117 647 q 292 701 218 701 q 383 689 336 701 q 481 650 429 676 l 481 766 l 279 766 l 279 876 l 481 876 l 481 880 q 471 911 481 902 q 433 924 461 920 l 433 1032 l 693 1032 l 693 876 l 804 876 l 804 766 l 693 766 l 693 249 q 703 176 693 192 q 739 151 713 160 l 739 0 l 481 0 l 481 47 q 386 6 433 20 q 292 -8 338 -8 q 121 55 174 -8 q 68 262 68 119 z "},"­":{"ha":530,"x_min":79,"x_max":452,"o":"m 79 307 l 79 473 l 452 473 l 452 307 l 79 307 z "},"∙":{"ha":421,"x_min":100,"x_max":321,"o":"m 100 518 q 133 596 100 563 q 211 629 166 629 q 289 597 257 629 q 321 518 321 564 q 289 440 321 473 q 211 408 256 408 q 133 441 167 408 q 100 518 100 475 z "},"":{"ha":842,"x_min":-22,"x_max":771,"o":"m 90 685 q 99 844 90 793 q 131 930 109 895 q 242 1023 169 994 q 436 1053 315 1053 q 606 1034 522 1053 q 771 977 689 1015 l 771 733 l 546 734 q 517 817 545 789 q 436 844 490 844 q 352 809 378 844 q 326 693 326 774 l 326 664 l 550 664 l 510 575 l 326 575 l 326 458 l 458 458 l 418 370 l 326 370 l 326 339 q 352 222 326 258 q 436 187 378 187 q 518 214 490 187 q 546 290 546 240 l 546 349 l 771 349 l 771 58 q 607 -1 695 20 q 424 -21 519 -21 q 255 4 324 -21 q 146 79 186 29 q 103 172 115 118 q 90 347 90 225 l 90 370 l 0 370 l 40 458 l 90 458 l 90 575 l -22 575 l 18 664 l 90 664 l 90 685 z "}}}
